<svg width="107" height="67" viewBox="0 0 107 67" fill="none" xmlns="http://www.w3.org/2000/svg">
<rect width="107" height="67" fill="#F2F2F2"/>
<g clip-path="url(#clip0_234:9530)">
<rect width="411" height="823" transform="translate(-152 -376)" fill="white"/>
<circle cx="54" cy="32" r="150" fill="#DBD5F5" fill-opacity="0.8"/>
<circle cx="54" cy="32" r="125" fill="#CFC7F2"/>
<circle cx="54" cy="32" r="100" fill="#D8EFFF"/>
<path d="M4.89638 27.808C4.38438 27.808 4.01104 27.6907 3.77638 27.456C3.54171 27.2213 3.42438 26.848 3.42438 26.336V5.6C3.42438 5.32267 3.45638 5.088 3.52038 4.896C3.60571 4.704 3.72304 4.544 3.87238 4.416L8.00038 0.927999C8.10704 0.842666 8.24571 0.778666 8.41638 0.735998C8.60838 0.671999 8.81104 0.639999 9.02438 0.639999H19.2324C21.451 0.639999 23.083 1.07733 24.1284 1.952C25.1737 2.80533 25.6964 4.10667 25.6964 5.856V7.392C25.6964 8.13867 25.5897 8.77867 25.3764 9.312C25.1844 9.84533 24.8857 10.272 24.4804 10.592L24.3844 10.656C25.5364 10.912 26.4004 11.4667 26.9764 12.32C27.5524 13.152 27.8404 14.3147 27.8404 15.808V18.752C27.8404 19.712 27.7017 20.544 27.4244 21.248C27.147 21.9307 26.731 22.5067 26.1764 22.976L22.0484 26.464C21.515 26.912 20.843 27.2427 20.0324 27.456C19.2217 27.6907 18.2724 27.808 17.1844 27.808H4.89638ZM21.3124 24C23.4244 24 24.9817 23.5733 25.9844 22.72C27.0084 21.8667 27.5204 20.544 27.5204 18.752V15.808C27.5204 14.2507 27.1897 13.0667 26.5284 12.256C25.867 11.4453 24.8537 10.976 23.4884 10.848C24.1284 10.5707 24.5977 10.1547 24.8964 9.6C25.2164 9.024 25.3764 8.288 25.3764 7.392V5.856C25.3764 4.192 24.875 2.96533 23.8724 2.176C22.8697 1.36533 21.323 0.959999 19.2324 0.959999H9.02438C8.61904 0.959999 8.32038 1.056 8.12838 1.248C7.95771 1.41867 7.87238 1.70667 7.87238 2.112V22.848C7.87238 23.2533 7.95771 23.552 8.12838 23.744C8.32038 23.9147 8.61904 24 9.02438 24H21.3124ZM20.0324 21.12H11.4244V3.84H17.9204C18.795 3.84 19.5097 3.936 20.0644 4.128C20.619 4.29867 21.0457 4.544 21.3444 4.864C21.643 5.16267 21.8457 5.51467 21.9524 5.92C22.059 6.32533 22.1124 6.76267 22.1124 7.232V9.28C22.1124 9.92 21.995 10.5067 21.7604 11.04C21.547 11.5733 20.9817 11.9573 20.0644 12.192C20.939 12.192 21.6537 12.288 22.2084 12.48C22.763 12.6507 23.1897 12.9067 23.4884 13.248C23.787 13.568 23.979 13.952 24.0644 14.4C24.171 14.848 24.2244 15.3387 24.2244 15.872V17.92C24.2244 18.3893 24.171 18.8267 24.0644 19.232C23.9577 19.616 23.755 19.9467 23.4564 20.224C23.179 20.5013 22.763 20.7253 22.2084 20.896C21.6537 21.0453 20.9284 21.12 20.0324 21.12ZM17.9204 4.16H11.7444V12.192H17.9204C18.795 12.192 19.4884 12.1173 20.0004 11.968C20.5124 11.7973 20.8964 11.584 21.1524 11.328C21.4297 11.0507 21.6004 10.7413 21.6644 10.4C21.7497 10.0373 21.7924 9.664 21.7924 9.28V7.232C21.7924 6.37867 21.547 5.65333 21.0564 5.056C20.5657 4.45867 19.5204 4.16 17.9204 4.16ZM15.0724 6.4H17.7924C18.1977 6.4 18.4964 6.50667 18.6884 6.72C18.9017 6.93333 19.0084 7.25333 19.0084 7.68V8.576C19.0084 9.00267 18.9017 9.32267 18.6884 9.536C18.4964 9.74933 18.1977 9.856 17.7924 9.856H15.0724V6.4ZM20.0644 12.512H11.7444V20.8H20.0324C21.6324 20.8 22.6777 20.544 23.1684 20.032C23.659 19.4987 23.9044 18.7947 23.9044 17.92V15.872C23.9044 14.912 23.659 14.112 23.1684 13.472C22.699 12.832 21.6644 12.512 20.0644 12.512ZM15.0724 14.784H19.2324C19.6377 14.784 19.9364 14.8907 20.1284 15.104C20.3417 15.296 20.4484 15.6053 20.4484 16.032V17.28C20.4484 17.7067 20.3417 18.0267 20.1284 18.24C19.9364 18.4533 19.6377 18.56 19.2324 18.56H15.0724V14.784ZM47.5906 27.808H31.3026C30.7906 27.808 30.4173 27.6907 30.1826 27.456C29.948 27.2213 29.8306 26.848 29.8306 26.336V5.6C29.8306 5.32267 29.8626 5.088 29.9266 4.896C30.012 4.704 30.1293 4.544 30.2786 4.416L34.4066 0.927999C34.5133 0.842666 34.652 0.778666 34.8226 0.735998C35.0146 0.671999 35.2173 0.639999 35.4306 0.639999H40.3906C40.9026 0.639999 41.276 0.757332 41.5106 0.991999C41.7453 1.22667 41.8626 1.6 41.8626 2.112V15.136L41.9266 15.072L46.0546 11.584C46.1613 11.4987 46.3 11.4347 46.4706 11.392C46.6626 11.328 46.8653 11.296 47.0786 11.296H51.7186C52.2306 11.296 52.604 11.4133 52.8386 11.648C53.0733 11.8827 53.1906 12.256 53.1906 12.768V22.848C53.1906 23.1253 53.148 23.36 53.0626 23.552C52.9986 23.744 52.892 23.904 52.7426 24.032L48.5826 27.488C48.4973 27.5733 48.3586 27.648 48.1666 27.712C47.996 27.776 47.804 27.808 47.5906 27.808ZM51.7186 24C52.124 24 52.412 23.9147 52.5826 23.744C52.7746 23.552 52.8706 23.2533 52.8706 22.848V12.768C52.8706 12.3627 52.7746 12.0747 52.5826 11.904C52.412 11.712 52.124 11.616 51.7186 11.616H47.0786C46.6733 11.616 46.3746 11.712 46.1826 11.904C46.012 12.0747 45.9266 12.3627 45.9266 12.768V17.952H41.5426V2.112C41.5426 1.70667 41.4466 1.41867 41.2546 1.248C41.084 1.056 40.796 0.959999 40.3906 0.959999H35.4306C35.0253 0.959999 34.7266 1.056 34.5346 1.248C34.364 1.41867 34.2786 1.70667 34.2786 2.112V22.848C34.2786 23.2533 34.364 23.552 34.5346 23.744C34.7266 23.9147 35.0253 24 35.4306 24H51.7186ZM37.7666 21.12V3.84H38.0866V20.8H49.2226V14.496H49.5426V21.12H37.7666ZM65.3161 28.288C63.2468 28.288 61.5401 28.064 60.1961 27.616C58.8735 27.1893 57.8388 26.6133 57.0921 25.888C56.3455 25.1627 55.8228 24.3307 55.5241 23.392C55.2468 22.4533 55.1081 21.4827 55.1081 20.48V5.6C55.1081 5.32267 55.1401 5.088 55.2041 4.896C55.2895 4.704 55.4068 4.544 55.5561 4.416L59.6841 0.927999C59.7908 0.842666 59.9295 0.778666 60.1001 0.735998C60.2921 0.671999 60.4948 0.639999 60.7081 0.639999H65.7321C66.2441 0.639999 66.6175 0.757332 66.8521 0.991999C67.0868 1.22667 67.2041 1.6 67.2041 2.112V16.704C67.2041 16.896 67.2361 17.0773 67.3001 17.248C67.3641 17.3973 67.5028 17.5147 67.7161 17.6V5.6C67.7161 5.32267 67.7481 5.088 67.8121 4.896C67.8761 4.704 67.9721 4.55467 68.1001 4.448L68.1321 4.416L72.2921 0.927999C72.3988 0.842666 72.5375 0.778666 72.7081 0.735998C72.8788 0.671999 73.0815 0.639999 73.3161 0.639999H78.1801C78.6921 0.639999 79.0655 0.757332 79.3001 0.991999C79.5348 1.22667 79.6521 1.6 79.6521 2.112V17.952C79.6521 18.9333 79.5135 19.84 79.2361 20.672C78.9588 21.504 78.4575 22.2187 77.7321 22.816L73.5721 26.272C72.8255 26.912 71.7908 27.4027 70.4681 27.744C69.1455 28.1067 67.4281 28.288 65.3161 28.288ZM79.3321 17.952V2.112C79.3321 1.70667 79.2361 1.41867 79.0441 1.248C78.8735 1.056 78.5855 0.959999 78.1801 0.959999H73.3161C72.9108 0.959999 72.6121 1.056 72.4201 1.248C72.2495 1.41867 72.1641 1.70667 72.1641 2.112V16.704C72.1641 17.1307 72.0041 17.4933 71.6841 17.792C71.3641 18.0693 70.6388 18.208 69.5081 18.208C68.3988 18.208 67.6841 18.0693 67.3641 17.792C67.0441 17.4933 66.8841 17.1307 66.8841 16.704V2.112C66.8841 1.70667 66.7881 1.41867 66.5961 1.248C66.4255 1.056 66.1375 0.959999 65.7321 0.959999H60.7081C60.3028 0.959999 60.0041 1.056 59.8121 1.248C59.6415 1.41867 59.5561 1.70667 59.5561 2.112V17.952C59.5561 18.9333 59.6948 19.8293 59.9721 20.64C60.2708 21.4293 60.7828 22.112 61.5081 22.688C62.2548 23.2427 63.2681 23.68 64.5481 24C65.8281 24.32 67.4601 24.48 69.4441 24.48C71.4281 24.48 73.0601 24.32 74.3401 24C75.6201 23.68 76.6228 23.2427 77.3481 22.688C78.0948 22.112 78.6068 21.4293 78.8841 20.64C79.1828 19.8293 79.3321 18.9333 79.3321 17.952ZM63.0761 3.84H63.3961V17.184C63.3961 18.3787 63.8121 19.3493 64.6441 20.096C65.4975 20.8213 67.1081 21.184 69.4761 21.184C71.8441 21.184 73.4548 20.8213 74.3081 20.096C75.1615 19.3493 75.5881 18.3787 75.5881 17.184V3.84H75.9081V17.184C75.9081 18.464 75.4601 19.5093 74.5641 20.32C73.6681 21.1093 71.9721 21.504 69.4761 21.504C66.9801 21.504 65.2841 21.1093 64.3881 20.32C63.5135 19.5093 63.0761 18.464 63.0761 17.184V3.84ZM98.6506 27.808H83.8026C83.2906 27.808 82.9173 27.6907 82.6826 27.456C82.448 27.2213 82.3306 26.848 82.3306 26.336V5.6C82.3306 5.32267 82.3626 5.088 82.4266 4.896C82.512 4.704 82.6293 4.544 82.7786 4.416L86.9066 0.927999C87.0133 0.842666 87.152 0.778666 87.3226 0.735998C87.5146 0.671999 87.7173 0.639999 87.9306 0.639999H102.779C103.291 0.639999 103.664 0.757332 103.899 0.991999C104.133 1.22667 104.251 1.6 104.251 2.112V5.856C104.251 6.13333 104.208 6.368 104.123 6.56C104.059 6.752 103.952 6.912 103.803 7.04L101.051 9.312C101.264 9.41867 101.413 9.57867 101.499 9.792C101.605 10.0053 101.659 10.2827 101.659 10.624V14.048C101.659 14.3253 101.616 14.56 101.531 14.752C101.467 14.944 101.36 15.104 101.211 15.232L98.3626 17.632H102.779C103.291 17.632 103.664 17.7493 103.899 17.984C104.133 18.2187 104.251 18.592 104.251 19.104V22.848C104.251 23.1253 104.208 23.36 104.123 23.552C104.059 23.744 103.952 23.904 103.803 24.032L99.6426 27.488C99.5573 27.5733 99.4186 27.648 99.2266 27.712C99.056 27.776 98.864 27.808 98.6506 27.808ZM102.779 24C103.184 24 103.472 23.9147 103.643 23.744C103.835 23.552 103.931 23.2533 103.931 22.848V19.104C103.931 18.6987 103.835 18.4107 103.643 18.24C103.472 18.048 103.184 17.952 102.779 17.952H93.9466V15.2H100.187C100.592 15.2 100.88 15.1147 101.051 14.944C101.243 14.752 101.339 14.4533 101.339 14.048V10.624C101.339 10.2187 101.243 9.93067 101.051 9.76C100.88 9.568 100.592 9.472 100.187 9.472H93.9466V7.008H102.779C103.184 7.008 103.472 6.92267 103.643 6.752C103.835 6.56 103.931 6.26133 103.931 5.856V2.112C103.931 1.70667 103.835 1.41867 103.643 1.248C103.472 1.056 103.184 0.959999 102.779 0.959999H87.9306C87.5253 0.959999 87.2266 1.056 87.0346 1.248C86.864 1.41867 86.7786 1.70667 86.7786 2.112V22.848C86.7786 23.2533 86.864 23.552 87.0346 23.744C87.2266 23.9147 87.5253 24 87.9306 24H102.779ZM101.051 20.8V21.12H90.2666V3.84H101.051V4.16H90.5866V12.192H98.4586V12.512H90.5866V20.8H101.051ZM9.04188 52.304V53.296H21.5219V52.304C21.5219 51.728 21.4685 51.1947 21.3619 50.704C21.2765 50.2133 21.1592 49.7547 21.0099 49.328L18.8019 44.112C18.5672 43.5573 18.3219 43.0987 18.0659 42.736C17.8099 42.352 17.3832 42.16 16.7859 42.16H13.6499C13.0099 42.16 12.5619 42.352 12.3059 42.736C12.0499 43.0987 11.8152 43.5467 11.6019 44.08L9.55388 49.328C9.40454 49.7547 9.27654 50.2133 9.16988 50.704C9.08454 51.1947 9.04188 51.728 9.04188 52.304ZM14.1619 45.68C14.2472 45.488 14.3325 45.3493 14.4179 45.264C14.5245 45.1787 14.6419 45.136 14.7699 45.136H15.5699C15.6979 45.136 15.8045 45.1787 15.8899 45.264C15.9965 45.3493 16.0925 45.488 16.1779 45.68L17.6819 50.544H12.6579L14.1619 45.68ZM21.5219 59.12V53.616H9.04188V59.12H8.72188V52.304C8.72188 51.7067 8.76454 51.1627 8.84988 50.672C8.95654 50.16 9.09521 49.6693 9.26588 49.2L11.3139 43.952C11.5485 43.3547 11.8152 42.8533 12.1139 42.448C12.4125 42.0427 12.9245 41.84 13.6499 41.84H16.7859C17.4899 41.84 17.9805 42.0427 18.2579 42.448C18.5565 42.8533 18.8339 43.3653 19.0899 43.984L21.2979 49.2C21.4685 49.6693 21.5965 50.16 21.6819 50.672C21.7885 51.1627 21.8419 51.7067 21.8419 52.304V59.12H21.5219ZM12.3379 60.848V56.368H18.0019V60.848C18.0019 61.2533 18.0979 61.552 18.2899 61.744C18.5032 61.9147 18.8232 62 19.2499 62H24.0819C24.4872 62 24.7752 61.9147 24.9459 61.744C25.1379 61.552 25.2339 61.2533 25.2339 60.848V52.4C25.2339 51.76 25.1272 51.024 24.9139 50.192C24.7219 49.36 24.4125 48.3893 23.9859 47.28L21.2019 40.016C21.0739 39.6533 20.8712 39.3867 20.5939 39.216C20.3379 39.0453 20.0072 38.96 19.6019 38.96H10.9939C10.5672 38.96 10.2152 39.0453 9.93788 39.216C9.68188 39.3867 9.48988 39.6533 9.36188 40.016L6.57788 47.28C6.15121 48.3893 5.83121 49.36 5.61788 50.192C5.42588 51.024 5.32988 51.76 5.32988 52.4V60.848C5.32988 61.2533 5.41521 61.552 5.58588 61.744C5.77788 61.9147 6.07654 62 6.48188 62H11.1859C11.5912 62 11.8792 61.9147 12.0499 61.744C12.2419 61.552 12.3379 61.2533 12.3379 60.848ZM8.04988 65.488C7.96454 65.5733 7.82588 65.648 7.63388 65.712C7.46321 65.776 7.27121 65.808 7.05788 65.808H2.35388C1.84188 65.808 1.46854 65.6907 1.23388 65.456C0.999208 65.2213 0.881875 64.848 0.881875 64.336V55.888C0.881875 55.2267 0.977875 54.48 1.16988 53.648C1.38321 52.7947 1.71388 51.792 2.16188 50.64L4.91388 43.408C4.97788 43.216 5.05254 43.056 5.13788 42.928C5.24454 42.7787 5.35121 42.6507 5.45788 42.544L5.48988 42.512L9.58588 39.088C9.75654 38.9387 9.95921 38.832 10.1939 38.768C10.4285 38.6827 10.6952 38.64 10.9939 38.64H19.6019C20.0925 38.64 20.4872 38.7467 20.7859 38.96C21.1059 39.152 21.3405 39.4613 21.4899 39.888L24.2739 47.152C24.7219 48.304 25.0419 49.3067 25.2339 50.16C25.4472 50.992 25.5539 51.7387 25.5539 52.4V60.848C25.5539 61.1253 25.5112 61.36 25.4259 61.552C25.3619 61.744 25.2552 61.904 25.1059 62.032L20.9459 65.488C20.8605 65.5733 20.7219 65.648 20.5299 65.712C20.3592 65.776 20.1672 65.808 19.9539 65.808H15.1219C14.5885 65.808 14.1939 65.68 13.9379 65.424C13.6819 65.1893 13.5539 64.8267 13.5539 64.336V60.176H12.6579V60.848C12.6579 61.1253 12.6152 61.36 12.5299 61.552C12.4659 61.744 12.3592 61.904 12.2099 62.032L8.04988 65.488ZM37.9724 66.288C35.903 66.288 34.1964 66.064 32.8524 65.616C31.5297 65.1893 30.495 64.6133 29.7484 63.888C29.0017 63.1627 28.479 62.3307 28.1804 61.392C27.903 60.4533 27.7644 59.4827 27.7644 58.48V43.6C27.7644 43.3227 27.7964 43.088 27.8604 42.896C27.9457 42.704 28.063 42.544 28.2124 42.416L32.3404 38.928C32.447 38.8427 32.5857 38.7787 32.7564 38.736C32.9484 38.672 33.151 38.64 33.3644 38.64H38.3884C38.9004 38.64 39.2737 38.7573 39.5084 38.992C39.743 39.2267 39.8604 39.6 39.8604 40.112V54.704C39.8604 54.896 39.8924 55.0773 39.9564 55.248C40.0204 55.3973 40.159 55.5147 40.3724 55.6V43.6C40.3724 43.3227 40.4044 43.088 40.4684 42.896C40.5324 42.704 40.6284 42.5547 40.7564 42.448L40.7884 42.416L44.9484 38.928C45.055 38.8427 45.1937 38.7787 45.3644 38.736C45.535 38.672 45.7377 38.64 45.9724 38.64H50.8364C51.3484 38.64 51.7217 38.7573 51.9564 38.992C52.191 39.2267 52.3084 39.6 52.3084 40.112V55.952C52.3084 56.9333 52.1697 57.84 51.8924 58.672C51.615 59.504 51.1137 60.2187 50.3884 60.816L46.2284 64.272C45.4817 64.912 44.447 65.4027 43.1244 65.744C41.8017 66.1067 40.0844 66.288 37.9724 66.288ZM51.9884 55.952V40.112C51.9884 39.7067 51.8924 39.4187 51.7004 39.248C51.5297 39.056 51.2417 38.96 50.8364 38.96H45.9724C45.567 38.96 45.2684 39.056 45.0764 39.248C44.9057 39.4187 44.8204 39.7067 44.8204 40.112V54.704C44.8204 55.1307 44.6604 55.4933 44.3404 55.792C44.0204 56.0693 43.295 56.208 42.1644 56.208C41.055 56.208 40.3404 56.0693 40.0204 55.792C39.7004 55.4933 39.5404 55.1307 39.5404 54.704V40.112C39.5404 39.7067 39.4444 39.4187 39.2524 39.248C39.0817 39.056 38.7937 38.96 38.3884 38.96H33.3644C32.959 38.96 32.6604 39.056 32.4684 39.248C32.2977 39.4187 32.2124 39.7067 32.2124 40.112V55.952C32.2124 56.9333 32.351 57.8293 32.6284 58.64C32.927 59.4293 33.439 60.112 34.1644 60.688C34.911 61.2427 35.9244 61.68 37.2044 62C38.4844 62.32 40.1164 62.48 42.1004 62.48C44.0844 62.48 45.7164 62.32 46.9964 62C48.2764 61.68 49.279 61.2427 50.0044 60.688C50.751 60.112 51.263 59.4293 51.5404 58.64C51.839 57.8293 51.9884 56.9333 51.9884 55.952ZM35.7324 41.84H36.0524V55.184C36.0524 56.3787 36.4684 57.3493 37.3004 58.096C38.1537 58.8213 39.7644 59.184 42.1324 59.184C44.5004 59.184 46.111 58.8213 46.9644 58.096C47.8177 57.3493 48.2444 56.3787 48.2444 55.184V41.84H48.5644V55.184C48.5644 56.464 48.1164 57.5093 47.2204 58.32C46.3244 59.1093 44.6284 59.504 42.1324 59.504C39.6364 59.504 37.9404 59.1093 37.0444 58.32C36.1697 57.5093 35.7324 56.464 35.7324 55.184V41.84ZM70.1869 42.16H63.2109V51.408H70.1869C71.5095 51.408 72.3949 51.088 72.8429 50.448C73.2909 49.808 73.5149 48.9013 73.5149 47.728V45.488C73.5149 44.5067 73.2375 43.7067 72.6829 43.088C72.1495 42.4693 71.3175 42.16 70.1869 42.16ZM66.6669 44.72H69.0669C69.6215 44.72 69.9949 44.8693 70.1869 45.168C70.3789 45.4453 70.4749 45.7973 70.4749 46.224V47.312C70.4749 47.7387 70.3789 48.1013 70.1869 48.4C69.9949 48.6773 69.6215 48.816 69.0669 48.816H66.6669V44.72ZM63.2109 59.12H62.8909V41.84H70.1869C71.4242 41.84 72.3415 42.192 72.9389 42.896C73.5362 43.5787 73.8349 44.4427 73.8349 45.488V47.696C73.8349 48.6773 73.7069 49.488 73.4509 50.128C73.1949 50.7467 72.6829 51.1733 71.9149 51.408H72.2669C73.5682 51.408 74.5389 51.7067 75.1789 52.304C75.8189 52.88 76.1389 53.7227 76.1389 54.832V59.12H75.8189V54.832C75.8189 53.7867 75.5309 53.008 74.9549 52.496C74.3789 51.9627 73.4829 51.696 72.2669 51.696H63.2109V59.12ZM65.5149 62C65.9202 62 66.2082 61.9147 66.3789 61.744C66.5709 61.552 66.6669 61.2533 66.6669 60.848V54.576H71.1469C71.5949 54.576 71.9042 54.6933 72.0749 54.928C72.2669 55.1413 72.3629 55.4827 72.3629 55.952V60.848C72.3629 61.2533 72.4482 61.552 72.6189 61.744C72.8109 61.9147 73.1095 62 73.5149 62H78.4749C78.8802 62 79.1682 61.9147 79.3389 61.744C79.5309 61.552 79.6269 61.2533 79.6269 60.848V54.064C79.6269 52.72 79.2642 51.6427 78.5389 50.832C77.8349 50.0213 76.9069 49.552 75.7549 49.424C76.4162 49.1467 76.8749 48.6987 77.1309 48.08C77.4082 47.44 77.5469 46.672 77.5469 45.776V44.304C77.5469 42.7253 77.0882 41.4453 76.1709 40.464C75.2749 39.4613 73.6322 38.96 71.2429 38.96H60.5869C60.1815 38.96 59.8829 39.056 59.6909 39.248C59.5202 39.4187 59.4349 39.7067 59.4349 40.112V60.848C59.4349 61.2533 59.5202 61.552 59.6909 61.744C59.8829 61.9147 60.1815 62 60.5869 62H65.5149ZM66.5389 62.032L62.3789 65.488C62.2935 65.5733 62.1549 65.648 61.9629 65.712C61.7922 65.776 61.6002 65.808 61.3869 65.808H56.4589C55.9469 65.808 55.5735 65.6907 55.3389 65.456C55.1042 65.2213 54.9869 64.848 54.9869 64.336V43.6C54.9869 43.3227 55.0189 43.088 55.0829 42.896C55.1682 42.704 55.2855 42.544 55.4349 42.416L59.5629 38.928C59.6695 38.8427 59.8082 38.7787 59.9789 38.736C60.1709 38.672 60.3735 38.64 60.5869 38.64H71.2429C73.7815 38.64 75.5202 39.1733 76.4589 40.24C77.3975 41.2853 77.8669 42.64 77.8669 44.304V45.776C77.8669 46.5653 77.7709 47.2587 77.5789 47.856C77.3869 48.432 77.0775 48.9013 76.6509 49.264H76.6189C77.6215 49.5413 78.4215 50.096 79.0189 50.928C79.6375 51.76 79.9469 52.8053 79.9469 54.064V60.848C79.9469 61.1253 79.9042 61.36 79.8189 61.552C79.7549 61.744 79.6482 61.904 79.4989 62.032L75.3389 65.488C75.2535 65.5733 75.1149 65.648 74.9229 65.712C74.7522 65.776 74.5602 65.808 74.3469 65.808H69.3869C68.8749 65.808 68.5015 65.6907 68.2669 65.456C68.0322 65.2213 67.9149 64.848 67.9149 64.336V59.44C67.9149 59.0987 67.8509 58.8427 67.7229 58.672C67.5949 58.48 67.3602 58.384 67.0189 58.384H66.9869V60.848C66.9869 61.1253 66.9442 61.36 66.8589 61.552C66.7949 61.744 66.6882 61.904 66.5389 62.032ZM89.6356 52.304V53.296H102.116V52.304C102.116 51.728 102.062 51.1947 101.956 50.704C101.87 50.2133 101.753 49.7547 101.604 49.328L99.3956 44.112C99.161 43.5573 98.9156 43.0987 98.6596 42.736C98.4036 42.352 97.977 42.16 97.3796 42.16H94.2436C93.6036 42.16 93.1556 42.352 92.8996 42.736C92.6436 43.0987 92.409 43.5467 92.1956 44.08L90.1476 49.328C89.9983 49.7547 89.8703 50.2133 89.7636 50.704C89.6783 51.1947 89.6356 51.728 89.6356 52.304ZM94.7556 45.68C94.841 45.488 94.9263 45.3493 95.0116 45.264C95.1183 45.1787 95.2356 45.136 95.3636 45.136H96.1636C96.2916 45.136 96.3983 45.1787 96.4836 45.264C96.5903 45.3493 96.6863 45.488 96.7716 45.68L98.2756 50.544H93.2516L94.7556 45.68ZM102.116 59.12V53.616H89.6356V59.12H89.3156V52.304C89.3156 51.7067 89.3583 51.1627 89.4436 50.672C89.5503 50.16 89.689 49.6693 89.8596 49.2L91.9076 43.952C92.1423 43.3547 92.409 42.8533 92.7076 42.448C93.0063 42.0427 93.5183 41.84 94.2436 41.84H97.3796C98.0836 41.84 98.5743 42.0427 98.8516 42.448C99.1503 42.8533 99.4276 43.3653 99.6836 43.984L101.892 49.2C102.062 49.6693 102.19 50.16 102.276 50.672C102.382 51.1627 102.436 51.7067 102.436 52.304V59.12H102.116ZM92.9316 60.848V56.368H98.5956V60.848C98.5956 61.2533 98.6916 61.552 98.8836 61.744C99.097 61.9147 99.417 62 99.8436 62H104.676C105.081 62 105.369 61.9147 105.54 61.744C105.732 61.552 105.828 61.2533 105.828 60.848V52.4C105.828 51.76 105.721 51.024 105.508 50.192C105.316 49.36 105.006 48.3893 104.58 47.28L101.796 40.016C101.668 39.6533 101.465 39.3867 101.188 39.216C100.932 39.0453 100.601 38.96 100.196 38.96H91.5876C91.161 38.96 90.809 39.0453 90.5316 39.216C90.2756 39.3867 90.0836 39.6533 89.9556 40.016L87.1716 47.28C86.745 48.3893 86.425 49.36 86.2116 50.192C86.0196 51.024 85.9236 51.76 85.9236 52.4V60.848C85.9236 61.2533 86.009 61.552 86.1796 61.744C86.3716 61.9147 86.6703 62 87.0756 62H91.7796C92.185 62 92.473 61.9147 92.6436 61.744C92.8356 61.552 92.9316 61.2533 92.9316 60.848ZM88.6436 65.488C88.5583 65.5733 88.4196 65.648 88.2276 65.712C88.057 65.776 87.865 65.808 87.6516 65.808H82.9476C82.4356 65.808 82.0623 65.6907 81.8276 65.456C81.593 65.2213 81.4756 64.848 81.4756 64.336V55.888C81.4756 55.2267 81.5716 54.48 81.7636 53.648C81.977 52.7947 82.3076 51.792 82.7556 50.64L85.5076 43.408C85.5716 43.216 85.6463 43.056 85.7316 42.928C85.8383 42.7787 85.945 42.6507 86.0516 42.544L86.0836 42.512L90.1796 39.088C90.3503 38.9387 90.553 38.832 90.7876 38.768C91.0223 38.6827 91.289 38.64 91.5876 38.64H100.196C100.686 38.64 101.081 38.7467 101.38 38.96C101.7 39.152 101.934 39.4613 102.084 39.888L104.868 47.152C105.316 48.304 105.636 49.3067 105.828 50.16C106.041 50.992 106.148 51.7387 106.148 52.4V60.848C106.148 61.1253 106.105 61.36 106.02 61.552C105.956 61.744 105.849 61.904 105.7 62.032L101.54 65.488C101.454 65.5733 101.316 65.648 101.124 65.712C100.953 65.776 100.761 65.808 100.548 65.808H95.7156C95.1823 65.808 94.7876 65.68 94.5316 65.424C94.2756 65.1893 94.1476 64.8267 94.1476 64.336V60.176H93.2516V60.848C93.2516 61.1253 93.209 61.36 93.1236 61.552C93.0596 61.744 92.953 61.904 92.8036 62.032L88.6436 65.488Z" fill="#656B75"/>
<path d="M4.89638 27.808C4.38438 27.808 4.01104 27.6907 3.77638 27.456C3.54171 27.2213 3.42438 26.848 3.42438 26.336V5.6C3.42438 5.32267 3.45638 5.088 3.52038 4.896C3.60571 4.704 3.72304 4.544 3.87238 4.416L8.00038 0.927999C8.10704 0.842666 8.24571 0.778666 8.41638 0.735998C8.60838 0.671999 8.81104 0.639999 9.02438 0.639999H19.2324C21.451 0.639999 23.083 1.07733 24.1284 1.952C25.1737 2.80533 25.6964 4.10667 25.6964 5.856V7.392C25.6964 8.13867 25.5897 8.77867 25.3764 9.312C25.1844 9.84533 24.8857 10.272 24.4804 10.592L24.3844 10.656C25.5364 10.912 26.4004 11.4667 26.9764 12.32C27.5524 13.152 27.8404 14.3147 27.8404 15.808V18.752C27.8404 19.712 27.7017 20.544 27.4244 21.248C27.147 21.9307 26.731 22.5067 26.1764 22.976L22.0484 26.464C21.515 26.912 20.843 27.2427 20.0324 27.456C19.2217 27.6907 18.2724 27.808 17.1844 27.808H4.89638ZM21.3124 24C23.4244 24 24.9817 23.5733 25.9844 22.72C27.0084 21.8667 27.5204 20.544 27.5204 18.752V15.808C27.5204 14.2507 27.1897 13.0667 26.5284 12.256C25.867 11.4453 24.8537 10.976 23.4884 10.848C24.1284 10.5707 24.5977 10.1547 24.8964 9.6C25.2164 9.024 25.3764 8.288 25.3764 7.392V5.856C25.3764 4.192 24.875 2.96533 23.8724 2.176C22.8697 1.36533 21.323 0.959999 19.2324 0.959999H9.02438C8.61904 0.959999 8.32038 1.056 8.12838 1.248C7.95771 1.41867 7.87238 1.70667 7.87238 2.112V22.848C7.87238 23.2533 7.95771 23.552 8.12838 23.744C8.32038 23.9147 8.61904 24 9.02438 24H21.3124ZM20.0324 21.12H11.4244V3.84H17.9204C18.795 3.84 19.5097 3.936 20.0644 4.128C20.619 4.29867 21.0457 4.544 21.3444 4.864C21.643 5.16267 21.8457 5.51467 21.9524 5.92C22.059 6.32533 22.1124 6.76267 22.1124 7.232V9.28C22.1124 9.92 21.995 10.5067 21.7604 11.04C21.547 11.5733 20.9817 11.9573 20.0644 12.192C20.939 12.192 21.6537 12.288 22.2084 12.48C22.763 12.6507 23.1897 12.9067 23.4884 13.248C23.787 13.568 23.979 13.952 24.0644 14.4C24.171 14.848 24.2244 15.3387 24.2244 15.872V17.92C24.2244 18.3893 24.171 18.8267 24.0644 19.232C23.9577 19.616 23.755 19.9467 23.4564 20.224C23.179 20.5013 22.763 20.7253 22.2084 20.896C21.6537 21.0453 20.9284 21.12 20.0324 21.12ZM17.9204 4.16H11.7444V12.192H17.9204C18.795 12.192 19.4884 12.1173 20.0004 11.968C20.5124 11.7973 20.8964 11.584 21.1524 11.328C21.4297 11.0507 21.6004 10.7413 21.6644 10.4C21.7497 10.0373 21.7924 9.664 21.7924 9.28V7.232C21.7924 6.37867 21.547 5.65333 21.0564 5.056C20.5657 4.45867 19.5204 4.16 17.9204 4.16ZM15.0724 6.4H17.7924C18.1977 6.4 18.4964 6.50667 18.6884 6.72C18.9017 6.93333 19.0084 7.25333 19.0084 7.68V8.576C19.0084 9.00267 18.9017 9.32267 18.6884 9.536C18.4964 9.74933 18.1977 9.856 17.7924 9.856H15.0724V6.4ZM20.0644 12.512H11.7444V20.8H20.0324C21.6324 20.8 22.6777 20.544 23.1684 20.032C23.659 19.4987 23.9044 18.7947 23.9044 17.92V15.872C23.9044 14.912 23.659 14.112 23.1684 13.472C22.699 12.832 21.6644 12.512 20.0644 12.512ZM15.0724 14.784H19.2324C19.6377 14.784 19.9364 14.8907 20.1284 15.104C20.3417 15.296 20.4484 15.6053 20.4484 16.032V17.28C20.4484 17.7067 20.3417 18.0267 20.1284 18.24C19.9364 18.4533 19.6377 18.56 19.2324 18.56H15.0724V14.784ZM47.5906 27.808H31.3026C30.7906 27.808 30.4173 27.6907 30.1826 27.456C29.948 27.2213 29.8306 26.848 29.8306 26.336V5.6C29.8306 5.32267 29.8626 5.088 29.9266 4.896C30.012 4.704 30.1293 4.544 30.2786 4.416L34.4066 0.927999C34.5133 0.842666 34.652 0.778666 34.8226 0.735998C35.0146 0.671999 35.2173 0.639999 35.4306 0.639999H40.3906C40.9026 0.639999 41.276 0.757332 41.5106 0.991999C41.7453 1.22667 41.8626 1.6 41.8626 2.112V15.136L41.9266 15.072L46.0546 11.584C46.1613 11.4987 46.3 11.4347 46.4706 11.392C46.6626 11.328 46.8653 11.296 47.0786 11.296H51.7186C52.2306 11.296 52.604 11.4133 52.8386 11.648C53.0733 11.8827 53.1906 12.256 53.1906 12.768V22.848C53.1906 23.1253 53.148 23.36 53.0626 23.552C52.9986 23.744 52.892 23.904 52.7426 24.032L48.5826 27.488C48.4973 27.5733 48.3586 27.648 48.1666 27.712C47.996 27.776 47.804 27.808 47.5906 27.808ZM51.7186 24C52.124 24 52.412 23.9147 52.5826 23.744C52.7746 23.552 52.8706 23.2533 52.8706 22.848V12.768C52.8706 12.3627 52.7746 12.0747 52.5826 11.904C52.412 11.712 52.124 11.616 51.7186 11.616H47.0786C46.6733 11.616 46.3746 11.712 46.1826 11.904C46.012 12.0747 45.9266 12.3627 45.9266 12.768V17.952H41.5426V2.112C41.5426 1.70667 41.4466 1.41867 41.2546 1.248C41.084 1.056 40.796 0.959999 40.3906 0.959999H35.4306C35.0253 0.959999 34.7266 1.056 34.5346 1.248C34.364 1.41867 34.2786 1.70667 34.2786 2.112V22.848C34.2786 23.2533 34.364 23.552 34.5346 23.744C34.7266 23.9147 35.0253 24 35.4306 24H51.7186ZM37.7666 21.12V3.84H38.0866V20.8H49.2226V14.496H49.5426V21.12H37.7666ZM65.3161 28.288C63.2468 28.288 61.5401 28.064 60.1961 27.616C58.8735 27.1893 57.8388 26.6133 57.0921 25.888C56.3455 25.1627 55.8228 24.3307 55.5241 23.392C55.2468 22.4533 55.1081 21.4827 55.1081 20.48V5.6C55.1081 5.32267 55.1401 5.088 55.2041 4.896C55.2895 4.704 55.4068 4.544 55.5561 4.416L59.6841 0.927999C59.7908 0.842666 59.9295 0.778666 60.1001 0.735998C60.2921 0.671999 60.4948 0.639999 60.7081 0.639999H65.7321C66.2441 0.639999 66.6175 0.757332 66.8521 0.991999C67.0868 1.22667 67.2041 1.6 67.2041 2.112V16.704C67.2041 16.896 67.2361 17.0773 67.3001 17.248C67.3641 17.3973 67.5028 17.5147 67.7161 17.6V5.6C67.7161 5.32267 67.7481 5.088 67.8121 4.896C67.8761 4.704 67.9721 4.55467 68.1001 4.448L68.1321 4.416L72.2921 0.927999C72.3988 0.842666 72.5375 0.778666 72.7081 0.735998C72.8788 0.671999 73.0815 0.639999 73.3161 0.639999H78.1801C78.6921 0.639999 79.0655 0.757332 79.3001 0.991999C79.5348 1.22667 79.6521 1.6 79.6521 2.112V17.952C79.6521 18.9333 79.5135 19.84 79.2361 20.672C78.9588 21.504 78.4575 22.2187 77.7321 22.816L73.5721 26.272C72.8255 26.912 71.7908 27.4027 70.4681 27.744C69.1455 28.1067 67.4281 28.288 65.3161 28.288ZM79.3321 17.952V2.112C79.3321 1.70667 79.2361 1.41867 79.0441 1.248C78.8735 1.056 78.5855 0.959999 78.1801 0.959999H73.3161C72.9108 0.959999 72.6121 1.056 72.4201 1.248C72.2495 1.41867 72.1641 1.70667 72.1641 2.112V16.704C72.1641 17.1307 72.0041 17.4933 71.6841 17.792C71.3641 18.0693 70.6388 18.208 69.5081 18.208C68.3988 18.208 67.6841 18.0693 67.3641 17.792C67.0441 17.4933 66.8841 17.1307 66.8841 16.704V2.112C66.8841 1.70667 66.7881 1.41867 66.5961 1.248C66.4255 1.056 66.1375 0.959999 65.7321 0.959999H60.7081C60.3028 0.959999 60.0041 1.056 59.8121 1.248C59.6415 1.41867 59.5561 1.70667 59.5561 2.112V17.952C59.5561 18.9333 59.6948 19.8293 59.9721 20.64C60.2708 21.4293 60.7828 22.112 61.5081 22.688C62.2548 23.2427 63.2681 23.68 64.5481 24C65.8281 24.32 67.4601 24.48 69.4441 24.48C71.4281 24.48 73.0601 24.32 74.3401 24C75.6201 23.68 76.6228 23.2427 77.3481 22.688C78.0948 22.112 78.6068 21.4293 78.8841 20.64C79.1828 19.8293 79.3321 18.9333 79.3321 17.952ZM63.0761 3.84H63.3961V17.184C63.3961 18.3787 63.8121 19.3493 64.6441 20.096C65.4975 20.8213 67.1081 21.184 69.4761 21.184C71.8441 21.184 73.4548 20.8213 74.3081 20.096C75.1615 19.3493 75.5881 18.3787 75.5881 17.184V3.84H75.9081V17.184C75.9081 18.464 75.4601 19.5093 74.5641 20.32C73.6681 21.1093 71.9721 21.504 69.4761 21.504C66.9801 21.504 65.2841 21.1093 64.3881 20.32C63.5135 19.5093 63.0761 18.464 63.0761 17.184V3.84ZM98.6506 27.808H83.8026C83.2906 27.808 82.9173 27.6907 82.6826 27.456C82.448 27.2213 82.3306 26.848 82.3306 26.336V5.6C82.3306 5.32267 82.3626 5.088 82.4266 4.896C82.512 4.704 82.6293 4.544 82.7786 4.416L86.9066 0.927999C87.0133 0.842666 87.152 0.778666 87.3226 0.735998C87.5146 0.671999 87.7173 0.639999 87.9306 0.639999H102.779C103.291 0.639999 103.664 0.757332 103.899 0.991999C104.133 1.22667 104.251 1.6 104.251 2.112V5.856C104.251 6.13333 104.208 6.368 104.123 6.56C104.059 6.752 103.952 6.912 103.803 7.04L101.051 9.312C101.264 9.41867 101.413 9.57867 101.499 9.792C101.605 10.0053 101.659 10.2827 101.659 10.624V14.048C101.659 14.3253 101.616 14.56 101.531 14.752C101.467 14.944 101.36 15.104 101.211 15.232L98.3626 17.632H102.779C103.291 17.632 103.664 17.7493 103.899 17.984C104.133 18.2187 104.251 18.592 104.251 19.104V22.848C104.251 23.1253 104.208 23.36 104.123 23.552C104.059 23.744 103.952 23.904 103.803 24.032L99.6426 27.488C99.5573 27.5733 99.4186 27.648 99.2266 27.712C99.056 27.776 98.864 27.808 98.6506 27.808ZM102.779 24C103.184 24 103.472 23.9147 103.643 23.744C103.835 23.552 103.931 23.2533 103.931 22.848V19.104C103.931 18.6987 103.835 18.4107 103.643 18.24C103.472 18.048 103.184 17.952 102.779 17.952H93.9466V15.2H100.187C100.592 15.2 100.88 15.1147 101.051 14.944C101.243 14.752 101.339 14.4533 101.339 14.048V10.624C101.339 10.2187 101.243 9.93067 101.051 9.76C100.88 9.568 100.592 9.472 100.187 9.472H93.9466V7.008H102.779C103.184 7.008 103.472 6.92267 103.643 6.752C103.835 6.56 103.931 6.26133 103.931 5.856V2.112C103.931 1.70667 103.835 1.41867 103.643 1.248C103.472 1.056 103.184 0.959999 102.779 0.959999H87.9306C87.5253 0.959999 87.2266 1.056 87.0346 1.248C86.864 1.41867 86.7786 1.70667 86.7786 2.112V22.848C86.7786 23.2533 86.864 23.552 87.0346 23.744C87.2266 23.9147 87.5253 24 87.9306 24H102.779ZM101.051 20.8V21.12H90.2666V3.84H101.051V4.16H90.5866V12.192H98.4586V12.512H90.5866V20.8H101.051ZM9.04188 52.304V53.296H21.5219V52.304C21.5219 51.728 21.4685 51.1947 21.3619 50.704C21.2765 50.2133 21.1592 49.7547 21.0099 49.328L18.8019 44.112C18.5672 43.5573 18.3219 43.0987 18.0659 42.736C17.8099 42.352 17.3832 42.16 16.7859 42.16H13.6499C13.0099 42.16 12.5619 42.352 12.3059 42.736C12.0499 43.0987 11.8152 43.5467 11.6019 44.08L9.55388 49.328C9.40454 49.7547 9.27654 50.2133 9.16988 50.704C9.08454 51.1947 9.04188 51.728 9.04188 52.304ZM14.1619 45.68C14.2472 45.488 14.3325 45.3493 14.4179 45.264C14.5245 45.1787 14.6419 45.136 14.7699 45.136H15.5699C15.6979 45.136 15.8045 45.1787 15.8899 45.264C15.9965 45.3493 16.0925 45.488 16.1779 45.68L17.6819 50.544H12.6579L14.1619 45.68ZM21.5219 59.12V53.616H9.04188V59.12H8.72188V52.304C8.72188 51.7067 8.76454 51.1627 8.84988 50.672C8.95654 50.16 9.09521 49.6693 9.26588 49.2L11.3139 43.952C11.5485 43.3547 11.8152 42.8533 12.1139 42.448C12.4125 42.0427 12.9245 41.84 13.6499 41.84H16.7859C17.4899 41.84 17.9805 42.0427 18.2579 42.448C18.5565 42.8533 18.8339 43.3653 19.0899 43.984L21.2979 49.2C21.4685 49.6693 21.5965 50.16 21.6819 50.672C21.7885 51.1627 21.8419 51.7067 21.8419 52.304V59.12H21.5219ZM12.3379 60.848V56.368H18.0019V60.848C18.0019 61.2533 18.0979 61.552 18.2899 61.744C18.5032 61.9147 18.8232 62 19.2499 62H24.0819C24.4872 62 24.7752 61.9147 24.9459 61.744C25.1379 61.552 25.2339 61.2533 25.2339 60.848V52.4C25.2339 51.76 25.1272 51.024 24.9139 50.192C24.7219 49.36 24.4125 48.3893 23.9859 47.28L21.2019 40.016C21.0739 39.6533 20.8712 39.3867 20.5939 39.216C20.3379 39.0453 20.0072 38.96 19.6019 38.96H10.9939C10.5672 38.96 10.2152 39.0453 9.93788 39.216C9.68188 39.3867 9.48988 39.6533 9.36188 40.016L6.57788 47.28C6.15121 48.3893 5.83121 49.36 5.61788 50.192C5.42588 51.024 5.32988 51.76 5.32988 52.4V60.848C5.32988 61.2533 5.41521 61.552 5.58588 61.744C5.77788 61.9147 6.07654 62 6.48188 62H11.1859C11.5912 62 11.8792 61.9147 12.0499 61.744C12.2419 61.552 12.3379 61.2533 12.3379 60.848ZM8.04988 65.488C7.96454 65.5733 7.82588 65.648 7.63388 65.712C7.46321 65.776 7.27121 65.808 7.05788 65.808H2.35388C1.84188 65.808 1.46854 65.6907 1.23388 65.456C0.999208 65.2213 0.881875 64.848 0.881875 64.336V55.888C0.881875 55.2267 0.977875 54.48 1.16988 53.648C1.38321 52.7947 1.71388 51.792 2.16188 50.64L4.91388 43.408C4.97788 43.216 5.05254 43.056 5.13788 42.928C5.24454 42.7787 5.35121 42.6507 5.45788 42.544L5.48988 42.512L9.58588 39.088C9.75654 38.9387 9.95921 38.832 10.1939 38.768C10.4285 38.6827 10.6952 38.64 10.9939 38.64H19.6019C20.0925 38.64 20.4872 38.7467 20.7859 38.96C21.1059 39.152 21.3405 39.4613 21.4899 39.888L24.2739 47.152C24.7219 48.304 25.0419 49.3067 25.2339 50.16C25.4472 50.992 25.5539 51.7387 25.5539 52.4V60.848C25.5539 61.1253 25.5112 61.36 25.4259 61.552C25.3619 61.744 25.2552 61.904 25.1059 62.032L20.9459 65.488C20.8605 65.5733 20.7219 65.648 20.5299 65.712C20.3592 65.776 20.1672 65.808 19.9539 65.808H15.1219C14.5885 65.808 14.1939 65.68 13.9379 65.424C13.6819 65.1893 13.5539 64.8267 13.5539 64.336V60.176H12.6579V60.848C12.6579 61.1253 12.6152 61.36 12.5299 61.552C12.4659 61.744 12.3592 61.904 12.2099 62.032L8.04988 65.488ZM37.9724 66.288C35.903 66.288 34.1964 66.064 32.8524 65.616C31.5297 65.1893 30.495 64.6133 29.7484 63.888C29.0017 63.1627 28.479 62.3307 28.1804 61.392C27.903 60.4533 27.7644 59.4827 27.7644 58.48V43.6C27.7644 43.3227 27.7964 43.088 27.8604 42.896C27.9457 42.704 28.063 42.544 28.2124 42.416L32.3404 38.928C32.447 38.8427 32.5857 38.7787 32.7564 38.736C32.9484 38.672 33.151 38.64 33.3644 38.64H38.3884C38.9004 38.64 39.2737 38.7573 39.5084 38.992C39.743 39.2267 39.8604 39.6 39.8604 40.112V54.704C39.8604 54.896 39.8924 55.0773 39.9564 55.248C40.0204 55.3973 40.159 55.5147 40.3724 55.6V43.6C40.3724 43.3227 40.4044 43.088 40.4684 42.896C40.5324 42.704 40.6284 42.5547 40.7564 42.448L40.7884 42.416L44.9484 38.928C45.055 38.8427 45.1937 38.7787 45.3644 38.736C45.535 38.672 45.7377 38.64 45.9724 38.64H50.8364C51.3484 38.64 51.7217 38.7573 51.9564 38.992C52.191 39.2267 52.3084 39.6 52.3084 40.112V55.952C52.3084 56.9333 52.1697 57.84 51.8924 58.672C51.615 59.504 51.1137 60.2187 50.3884 60.816L46.2284 64.272C45.4817 64.912 44.447 65.4027 43.1244 65.744C41.8017 66.1067 40.0844 66.288 37.9724 66.288ZM51.9884 55.952V40.112C51.9884 39.7067 51.8924 39.4187 51.7004 39.248C51.5297 39.056 51.2417 38.96 50.8364 38.96H45.9724C45.567 38.96 45.2684 39.056 45.0764 39.248C44.9057 39.4187 44.8204 39.7067 44.8204 40.112V54.704C44.8204 55.1307 44.6604 55.4933 44.3404 55.792C44.0204 56.0693 43.295 56.208 42.1644 56.208C41.055 56.208 40.3404 56.0693 40.0204 55.792C39.7004 55.4933 39.5404 55.1307 39.5404 54.704V40.112C39.5404 39.7067 39.4444 39.4187 39.2524 39.248C39.0817 39.056 38.7937 38.96 38.3884 38.96H33.3644C32.959 38.96 32.6604 39.056 32.4684 39.248C32.2977 39.4187 32.2124 39.7067 32.2124 40.112V55.952C32.2124 56.9333 32.351 57.8293 32.6284 58.64C32.927 59.4293 33.439 60.112 34.1644 60.688C34.911 61.2427 35.9244 61.68 37.2044 62C38.4844 62.32 40.1164 62.48 42.1004 62.48C44.0844 62.48 45.7164 62.32 46.9964 62C48.2764 61.68 49.279 61.2427 50.0044 60.688C50.751 60.112 51.263 59.4293 51.5404 58.64C51.839 57.8293 51.9884 56.9333 51.9884 55.952ZM35.7324 41.84H36.0524V55.184C36.0524 56.3787 36.4684 57.3493 37.3004 58.096C38.1537 58.8213 39.7644 59.184 42.1324 59.184C44.5004 59.184 46.111 58.8213 46.9644 58.096C47.8177 57.3493 48.2444 56.3787 48.2444 55.184V41.84H48.5644V55.184C48.5644 56.464 48.1164 57.5093 47.2204 58.32C46.3244 59.1093 44.6284 59.504 42.1324 59.504C39.6364 59.504 37.9404 59.1093 37.0444 58.32C36.1697 57.5093 35.7324 56.464 35.7324 55.184V41.84ZM70.1869 42.16H63.2109V51.408H70.1869C71.5095 51.408 72.3949 51.088 72.8429 50.448C73.2909 49.808 73.5149 48.9013 73.5149 47.728V45.488C73.5149 44.5067 73.2375 43.7067 72.6829 43.088C72.1495 42.4693 71.3175 42.16 70.1869 42.16ZM66.6669 44.72H69.0669C69.6215 44.72 69.9949 44.8693 70.1869 45.168C70.3789 45.4453 70.4749 45.7973 70.4749 46.224V47.312C70.4749 47.7387 70.3789 48.1013 70.1869 48.4C69.9949 48.6773 69.6215 48.816 69.0669 48.816H66.6669V44.72ZM63.2109 59.12H62.8909V41.84H70.1869C71.4242 41.84 72.3415 42.192 72.9389 42.896C73.5362 43.5787 73.8349 44.4427 73.8349 45.488V47.696C73.8349 48.6773 73.7069 49.488 73.4509 50.128C73.1949 50.7467 72.6829 51.1733 71.9149 51.408H72.2669C73.5682 51.408 74.5389 51.7067 75.1789 52.304C75.8189 52.88 76.1389 53.7227 76.1389 54.832V59.12H75.8189V54.832C75.8189 53.7867 75.5309 53.008 74.9549 52.496C74.3789 51.9627 73.4829 51.696 72.2669 51.696H63.2109V59.12ZM65.5149 62C65.9202 62 66.2082 61.9147 66.3789 61.744C66.5709 61.552 66.6669 61.2533 66.6669 60.848V54.576H71.1469C71.5949 54.576 71.9042 54.6933 72.0749 54.928C72.2669 55.1413 72.3629 55.4827 72.3629 55.952V60.848C72.3629 61.2533 72.4482 61.552 72.6189 61.744C72.8109 61.9147 73.1095 62 73.5149 62H78.4749C78.8802 62 79.1682 61.9147 79.3389 61.744C79.5309 61.552 79.6269 61.2533 79.6269 60.848V54.064C79.6269 52.72 79.2642 51.6427 78.5389 50.832C77.8349 50.0213 76.9069 49.552 75.7549 49.424C76.4162 49.1467 76.8749 48.6987 77.1309 48.08C77.4082 47.44 77.5469 46.672 77.5469 45.776V44.304C77.5469 42.7253 77.0882 41.4453 76.1709 40.464C75.2749 39.4613 73.6322 38.96 71.2429 38.96H60.5869C60.1815 38.96 59.8829 39.056 59.6909 39.248C59.5202 39.4187 59.4349 39.7067 59.4349 40.112V60.848C59.4349 61.2533 59.5202 61.552 59.6909 61.744C59.8829 61.9147 60.1815 62 60.5869 62H65.5149ZM66.5389 62.032L62.3789 65.488C62.2935 65.5733 62.1549 65.648 61.9629 65.712C61.7922 65.776 61.6002 65.808 61.3869 65.808H56.4589C55.9469 65.808 55.5735 65.6907 55.3389 65.456C55.1042 65.2213 54.9869 64.848 54.9869 64.336V43.6C54.9869 43.3227 55.0189 43.088 55.0829 42.896C55.1682 42.704 55.2855 42.544 55.4349 42.416L59.5629 38.928C59.6695 38.8427 59.8082 38.7787 59.9789 38.736C60.1709 38.672 60.3735 38.64 60.5869 38.64H71.2429C73.7815 38.64 75.5202 39.1733 76.4589 40.24C77.3975 41.2853 77.8669 42.64 77.8669 44.304V45.776C77.8669 46.5653 77.7709 47.2587 77.5789 47.856C77.3869 48.432 77.0775 48.9013 76.6509 49.264H76.6189C77.6215 49.5413 78.4215 50.096 79.0189 50.928C79.6375 51.76 79.9469 52.8053 79.9469 54.064V60.848C79.9469 61.1253 79.9042 61.36 79.8189 61.552C79.7549 61.744 79.6482 61.904 79.4989 62.032L75.3389 65.488C75.2535 65.5733 75.1149 65.648 74.9229 65.712C74.7522 65.776 74.5602 65.808 74.3469 65.808H69.3869C68.8749 65.808 68.5015 65.6907 68.2669 65.456C68.0322 65.2213 67.9149 64.848 67.9149 64.336V59.44C67.9149 59.0987 67.8509 58.8427 67.7229 58.672C67.5949 58.48 67.3602 58.384 67.0189 58.384H66.9869V60.848C66.9869 61.1253 66.9442 61.36 66.8589 61.552C66.7949 61.744 66.6882 61.904 66.5389 62.032ZM89.6356 52.304V53.296H102.116V52.304C102.116 51.728 102.062 51.1947 101.956 50.704C101.87 50.2133 101.753 49.7547 101.604 49.328L99.3956 44.112C99.161 43.5573 98.9156 43.0987 98.6596 42.736C98.4036 42.352 97.977 42.16 97.3796 42.16H94.2436C93.6036 42.16 93.1556 42.352 92.8996 42.736C92.6436 43.0987 92.409 43.5467 92.1956 44.08L90.1476 49.328C89.9983 49.7547 89.8703 50.2133 89.7636 50.704C89.6783 51.1947 89.6356 51.728 89.6356 52.304ZM94.7556 45.68C94.841 45.488 94.9263 45.3493 95.0116 45.264C95.1183 45.1787 95.2356 45.136 95.3636 45.136H96.1636C96.2916 45.136 96.3983 45.1787 96.4836 45.264C96.5903 45.3493 96.6863 45.488 96.7716 45.68L98.2756 50.544H93.2516L94.7556 45.68ZM102.116 59.12V53.616H89.6356V59.12H89.3156V52.304C89.3156 51.7067 89.3583 51.1627 89.4436 50.672C89.5503 50.16 89.689 49.6693 89.8596 49.2L91.9076 43.952C92.1423 43.3547 92.409 42.8533 92.7076 42.448C93.0063 42.0427 93.5183 41.84 94.2436 41.84H97.3796C98.0836 41.84 98.5743 42.0427 98.8516 42.448C99.1503 42.8533 99.4276 43.3653 99.6836 43.984L101.892 49.2C102.062 49.6693 102.19 50.16 102.276 50.672C102.382 51.1627 102.436 51.7067 102.436 52.304V59.12H102.116ZM92.9316 60.848V56.368H98.5956V60.848C98.5956 61.2533 98.6916 61.552 98.8836 61.744C99.097 61.9147 99.417 62 99.8436 62H104.676C105.081 62 105.369 61.9147 105.54 61.744C105.732 61.552 105.828 61.2533 105.828 60.848V52.4C105.828 51.76 105.721 51.024 105.508 50.192C105.316 49.36 105.006 48.3893 104.58 47.28L101.796 40.016C101.668 39.6533 101.465 39.3867 101.188 39.216C100.932 39.0453 100.601 38.96 100.196 38.96H91.5876C91.161 38.96 90.809 39.0453 90.5316 39.216C90.2756 39.3867 90.0836 39.6533 89.9556 40.016L87.1716 47.28C86.745 48.3893 86.425 49.36 86.2116 50.192C86.0196 51.024 85.9236 51.76 85.9236 52.4V60.848C85.9236 61.2533 86.009 61.552 86.1796 61.744C86.3716 61.9147 86.6703 62 87.0756 62H91.7796C92.185 62 92.473 61.9147 92.6436 61.744C92.8356 61.552 92.9316 61.2533 92.9316 60.848ZM88.6436 65.488C88.5583 65.5733 88.4196 65.648 88.2276 65.712C88.057 65.776 87.865 65.808 87.6516 65.808H82.9476C82.4356 65.808 82.0623 65.6907 81.8276 65.456C81.593 65.2213 81.4756 64.848 81.4756 64.336V55.888C81.4756 55.2267 81.5716 54.48 81.7636 53.648C81.977 52.7947 82.3076 51.792 82.7556 50.64L85.5076 43.408C85.5716 43.216 85.6463 43.056 85.7316 42.928C85.8383 42.7787 85.945 42.6507 86.0516 42.544L86.0836 42.512L90.1796 39.088C90.3503 38.9387 90.553 38.832 90.7876 38.768C91.0223 38.6827 91.289 38.64 91.5876 38.64H100.196C100.686 38.64 101.081 38.7467 101.38 38.96C101.7 39.152 101.934 39.4613 102.084 39.888L104.868 47.152C105.316 48.304 105.636 49.3067 105.828 50.16C106.041 50.992 106.148 51.7387 106.148 52.4V60.848C106.148 61.1253 106.105 61.36 106.02 61.552C105.956 61.744 105.849 61.904 105.7 62.032L101.54 65.488C101.454 65.5733 101.316 65.648 101.124 65.712C100.953 65.776 100.761 65.808 100.548 65.808H95.7156C95.1823 65.808 94.7876 65.68 94.5316 65.424C94.2756 65.1893 94.1476 64.8267 94.1476 64.336V60.176H93.2516V60.848C93.2516 61.1253 93.209 61.36 93.1236 61.552C93.0596 61.744 92.953 61.904 92.8036 62.032L88.6436 65.488Z" fill="#656B75"/>
</g>
<defs>
<clipPath id="clip0_234:9530">
<rect width="411" height="823" fill="white" transform="translate(-152 -376)"/>
</clipPath>
</defs>
</svg>
