<svg width="21" height="17" viewBox="0 0 21 17" fill="none" xmlns="http://www.w3.org/2000/svg">
<path d="M2.63281 4.08398C0.936523 4.97168 1.81543 8.00391 3.72266 8.00391C5.41895 8.00391 11.123 3.94336 13.7773 3.94336C14.709 3.94336 15.5176 4.32129 16.3877 5.1123L18.6465 7.18652C19.4727 7.94238 20.6768 7.0459 20.123 6.12305C19.7275 5.48145 19.1562 4.62012 17.8291 3.14355C16.3438 1.50879 15.043 0.550781 13.0391 0.550781C10.4902 0.550781 6.45605 2.08887 2.63281 4.08398ZM18.3477 11.7217C19.2002 10.8076 17.917 9.5332 16.959 10.4824C15.8252 11.6074 13.8916 12.293 11.7559 12.293C9.3916 12.293 7.15039 11.748 4.98828 10.5703C3.81055 9.9375 2.94922 11.625 4.15332 12.2666C4.56641 12.4863 4.98828 12.6885 5.41016 12.873C5.18164 13.2686 4.88281 13.708 4.63672 13.9629C3.88965 14.7451 5.00586 15.7295 5.74414 14.9209C6.16602 14.4639 6.53516 13.8398 6.78125 13.3828C7.36133 13.5762 7.9502 13.7256 8.53906 13.8486C8.38086 14.5078 8.1875 15.1055 8.05566 15.4043C7.61621 16.3975 9.00488 16.9512 9.42676 15.9229C9.65527 15.3516 9.83105 14.6045 9.92773 14.0684C10.5342 14.1387 11.1494 14.1738 11.7559 14.1738C11.8438 14.1738 11.9229 14.1738 12.0107 14.165C12.0547 14.8154 12.0283 15.4307 12.0107 15.7383C11.9404 16.8281 13.4434 16.8633 13.4697 15.7559C13.4873 15.2197 13.4434 14.5781 13.3906 14.0596C14.0762 13.9629 14.7266 13.8047 15.3418 13.5938C15.6318 14.3145 15.7285 14.9473 15.79 15.2637C15.9834 16.3359 17.4512 15.8789 17.2139 14.9121C17.0469 14.2266 16.8535 13.5586 16.625 13.0312C17.293 12.6709 17.873 12.2314 18.3477 11.7217Z" fill="#37474F"/>
</svg>
