<svg width="21" height="21" viewBox="0 0 21 21" fill="none" xmlns="http://www.w3.org/2000/svg">
<rect width="21" height="21" fill="#F2F2F2"/>
<g clip-path="url(#clip0_234:9530)">
<rect width="411" height="823" transform="translate(-28 -505)" fill="white"/>
<path d="M-28 -127C-28 -140.255 -17.2548 -151 -4 -151H359C372.255 -151 383 -140.255 383 -127V318H-28V-127Z" fill="#E2DCFE"/>
<g filter="url(#filter0_d_234:9530)">
<rect x="2" y="-31" width="351" height="71" rx="35.5" fill="white"/>
</g>
<rect width="231" height="807" transform="translate(-28 -505)" fill="white"/>
<path d="M9.08479 16.139H11.1002V14.1236H9.08479V16.139ZM10.0925 0.015625C8.76916 0.015625 7.45877 0.276277 6.23615 0.7827C5.01354 1.28912 3.90265 2.0314 2.9669 2.96715C1.07707 4.85697 0.0153809 7.42013 0.0153809 10.0927C0.0153809 12.7654 1.07707 15.3285 2.9669 17.2183C3.90265 18.1541 5.01354 18.8964 6.23615 19.4028C7.45877 19.9092 8.76916 20.1699 10.0925 20.1699C12.7651 20.1699 15.3283 19.1082 17.2181 17.2183C19.1079 15.3285 20.1696 12.7654 20.1696 10.0927C20.1696 8.7694 19.909 7.45901 19.4025 6.2364C18.8961 5.01379 18.1539 3.90289 17.2181 2.96715C16.2824 2.0314 15.1715 1.28912 13.9488 0.7827C12.7262 0.276277 11.4158 0.015625 10.0925 0.015625ZM10.0925 18.1544C5.64849 18.1544 2.03081 14.5368 2.03081 10.0927C2.03081 5.64874 5.64849 2.03105 10.0925 2.03105C14.5365 2.03105 18.1542 5.64874 18.1542 10.0927C18.1542 14.5368 14.5365 18.1544 10.0925 18.1544ZM10.0925 4.04647C9.02345 4.04647 7.99819 4.47115 7.24226 5.22708C6.48633 5.98301 6.06165 7.00827 6.06165 8.07732H8.07708C8.07708 7.5428 8.28942 7.03017 8.66738 6.6522C9.04535 6.27424 9.55798 6.0619 10.0925 6.0619C10.627 6.0619 11.1397 6.27424 11.5176 6.6522C11.8956 7.03017 12.1079 7.5428 12.1079 8.07732C12.1079 10.0927 9.08479 9.84082 9.08479 13.1159H11.1002C11.1002 10.8485 14.1234 10.5966 14.1234 8.07732C14.1234 7.00827 13.6987 5.98301 12.9427 5.22708C12.1868 4.47115 11.1615 4.04647 10.0925 4.04647Z" fill="#37474F"/>
</g>
<defs>
<filter id="filter0_d_234:9530" x="-2" y="-31" width="359" height="79" filterUnits="userSpaceOnUse" color-interpolation-filters="sRGB">
<feFlood flood-opacity="0" result="BackgroundImageFix"/>
<feColorMatrix in="SourceAlpha" type="matrix" values="0 0 0 0 0 0 0 0 0 0 0 0 0 0 0 0 0 0 127 0" result="hardAlpha"/>
<feOffset dy="4"/>
<feGaussianBlur stdDeviation="2"/>
<feComposite in2="hardAlpha" operator="out"/>
<feColorMatrix type="matrix" values="0 0 0 0 0.709804 0 0 0 0 0.643137 0 0 0 0 0.898039 0 0 0 0.25 0"/>
<feBlend mode="normal" in2="BackgroundImageFix" result="effect1_dropShadow_234:9530"/>
<feBlend mode="normal" in="SourceGraphic" in2="effect1_dropShadow_234:9530" result="shape"/>
</filter>
<clipPath id="clip0_234:9530">
<rect width="411" height="823" fill="white" transform="translate(-28 -505)"/>
</clipPath>
</defs>
</svg>
