<svg width="21" height="22" viewBox="0 0 21 22" fill="none" xmlns="http://www.w3.org/2000/svg">
<rect width="21" height="22" fill="#F2F2F2"/>
<g clip-path="url(#clip0_234:9530)">
<rect width="411" height="823" transform="translate(-29 -225)" fill="white"/>
<rect width="231" height="807" transform="translate(-29 -225)" fill="white"/>
<path d="M16.217 12.995L18.2828 15.0608L12.1761 21.1776H10.1002V19.1017L16.217 12.995ZM18.2022 11.2315C18.3433 11.2315 18.4743 11.2919 18.5851 11.4028L19.875 12.6926C20.0967 12.9043 20.0967 13.257 19.875 13.4686L18.8673 14.4763L16.8015 12.4105L17.8092 11.4028C17.92 11.2919 18.0611 11.2315 18.2022 11.2315ZM14.131 2.03105V8.07732L12.1156 6.0619L10.1002 8.07732V2.03105H6.06934V18.1544H8.08477V20.1699H4.05392C2.99582 20.1699 2.0385 19.2125 2.0385 18.1544V17.1467H0.0230713V15.1313H2.0385V11.1005H0.0230713V9.08503H2.0385V5.05418H0.0230713V3.03876H2.0385V2.03105C2.0385 0.912489 2.94544 0.015625 4.05392 0.015625H16.1465C17.2046 0.015625 18.1619 0.972951 18.1619 2.03105V8.07732L16.1465 10.0927V2.03105H14.131ZM2.0385 3.03876V5.05418H4.05392V3.03876H2.0385ZM2.0385 9.08503V11.1005H4.05392V9.08503H2.0385ZM2.0385 15.1313V17.1467H4.05392V15.1313H2.0385Z" fill="#37474F"/>
</g>
<defs>
<clipPath id="clip0_234:9530">
<rect width="411" height="823" fill="white" transform="translate(-29 -225)"/>
</clipPath>
</defs>
</svg>
