<svg width="23" height="17" viewBox="0 0 23 17" fill="none" xmlns="http://www.w3.org/2000/svg">
<rect width="23" height="17" fill="#F2F2F2"/>
<g clip-path="url(#clip0_234:9530)">
<rect width="411" height="823" transform="translate(-27 -171)" fill="white"/>
<rect width="231" height="807" transform="translate(-27 -171)" fill="white"/>
<path d="M4.03854 11.1161L3.43391 10.6122C1.41849 8.69757 0.00769043 7.48832 0.00769043 5.97675C0.00769043 4.7675 1.0154 3.75978 2.22466 3.75978C2.93006 3.75978 3.63545 4.0621 4.03854 4.56595C4.44162 4.0621 5.14702 3.75978 5.85242 3.75978C7.06168 3.75978 8.06939 4.66673 8.06939 5.97675C8.06939 7.48832 6.65859 8.69757 4.64317 10.6122L4.03854 11.1161ZM14.1157 0.03125C13.0466 0.03125 12.0214 0.455927 11.2654 1.21186C10.5095 1.96779 10.0848 2.99305 10.0848 4.0621C10.0848 5.13115 10.5095 6.15641 11.2654 6.91234C12.0214 7.66827 13.0466 8.09295 14.1157 8.09295C15.1847 8.09295 16.21 7.66827 16.9659 6.91234C17.7218 6.15641 18.1465 5.13115 18.1465 4.0621C18.1465 2.99305 17.7218 1.96779 16.9659 1.21186C16.21 0.455927 15.1847 0.03125 14.1157 0.03125ZM14.1157 6.17829C13.5544 6.17829 13.0161 5.95534 12.6193 5.55847C12.2224 5.16161 11.9995 4.62335 11.9995 4.0621C11.9995 3.50085 12.2224 2.96259 12.6193 2.56572C13.0161 2.16886 13.5544 1.9459 14.1157 1.9459C15.2846 1.9459 16.2319 2.89315 16.2319 4.0621C16.2319 5.23104 15.2846 6.17829 14.1157 6.17829ZM14.1157 9.10066C11.4251 9.10066 6.05396 10.4409 6.05396 13.1315V16.1546H22.1774V13.1315C22.1774 10.4409 16.8063 9.10066 14.1157 9.10066ZM20.2627 14.24H7.96862V13.1315C7.96862 12.4866 11.0925 11.0153 14.1157 11.0153C17.1086 11.0153 20.2627 12.4866 20.2627 13.1315V14.24Z" fill="#37474F"/>
</g>
<defs>
<clipPath id="clip0_234:9530">
<rect width="411" height="823" fill="white" transform="translate(-27 -171)"/>
</clipPath>
</defs>
</svg>
