<svg width="300" height="300" viewBox="0 0 300 300" fill="none" xmlns="http://www.w3.org/2000/svg">
<rect width="300" height="300" fill="#F2F2F2"/>
<g clip-path="url(#clip0_234:9530)">
<rect width="411" height="823" transform="translate(-56 -258)" fill="white"/>
<circle cx="150" cy="150" r="150" fill="#DBD5F5" fill-opacity="0.8"/>
<circle cx="150" cy="150" r="125" fill="#CFC7F2"/>
<circle cx="150" cy="150" r="100" fill="#D8EFFF"/>
<path d="M100.896 145.808C100.384 145.808 100.011 145.691 99.7764 145.456C99.5417 145.221 99.4244 144.848 99.4244 144.336V123.6C99.4244 123.323 99.4564 123.088 99.5204 122.896C99.6057 122.704 99.723 122.544 99.8724 122.416L104 118.928C104.107 118.843 104.246 118.779 104.416 118.736C104.608 118.672 104.811 118.64 105.024 118.64H115.232C117.451 118.64 119.083 119.077 120.128 119.952C121.174 120.805 121.696 122.107 121.696 123.856V125.392C121.696 126.139 121.59 126.779 121.376 127.312C121.184 127.845 120.886 128.272 120.48 128.592L120.384 128.656C121.536 128.912 122.4 129.467 122.976 130.32C123.552 131.152 123.84 132.315 123.84 133.808V136.752C123.84 137.712 123.702 138.544 123.424 139.248C123.147 139.931 122.731 140.507 122.176 140.976L118.048 144.464C117.515 144.912 116.843 145.243 116.032 145.456C115.222 145.691 114.272 145.808 113.184 145.808H100.896ZM117.312 142C119.424 142 120.982 141.573 121.984 140.72C123.008 139.867 123.52 138.544 123.52 136.752V133.808C123.52 132.251 123.19 131.067 122.528 130.256C121.867 129.445 120.854 128.976 119.488 128.848C120.128 128.571 120.598 128.155 120.896 127.6C121.216 127.024 121.376 126.288 121.376 125.392V123.856C121.376 122.192 120.875 120.965 119.872 120.176C118.87 119.365 117.323 118.96 115.232 118.96H105.024C104.619 118.96 104.32 119.056 104.128 119.248C103.958 119.419 103.872 119.707 103.872 120.112V140.848C103.872 141.253 103.958 141.552 104.128 141.744C104.32 141.915 104.619 142 105.024 142H117.312ZM116.032 139.12H107.424V121.84H113.92C114.795 121.84 115.51 121.936 116.064 122.128C116.619 122.299 117.046 122.544 117.344 122.864C117.643 123.163 117.846 123.515 117.952 123.92C118.059 124.325 118.112 124.763 118.112 125.232V127.28C118.112 127.92 117.995 128.507 117.76 129.04C117.547 129.573 116.982 129.957 116.064 130.192C116.939 130.192 117.654 130.288 118.208 130.48C118.763 130.651 119.19 130.907 119.488 131.248C119.787 131.568 119.979 131.952 120.064 132.4C120.171 132.848 120.224 133.339 120.224 133.872V135.92C120.224 136.389 120.171 136.827 120.064 137.232C119.958 137.616 119.755 137.947 119.456 138.224C119.179 138.501 118.763 138.725 118.208 138.896C117.654 139.045 116.928 139.12 116.032 139.12ZM113.92 122.16H107.744V130.192H113.92C114.795 130.192 115.488 130.117 116 129.968C116.512 129.797 116.896 129.584 117.152 129.328C117.43 129.051 117.6 128.741 117.664 128.4C117.75 128.037 117.792 127.664 117.792 127.28V125.232C117.792 124.379 117.547 123.653 117.056 123.056C116.566 122.459 115.52 122.16 113.92 122.16ZM111.072 124.4H113.792C114.198 124.4 114.496 124.507 114.688 124.72C114.902 124.933 115.008 125.253 115.008 125.68V126.576C115.008 127.003 114.902 127.323 114.688 127.536C114.496 127.749 114.198 127.856 113.792 127.856H111.072V124.4ZM116.064 130.512H107.744V138.8H116.032C117.632 138.8 118.678 138.544 119.168 138.032C119.659 137.499 119.904 136.795 119.904 135.92V133.872C119.904 132.912 119.659 132.112 119.168 131.472C118.699 130.832 117.664 130.512 116.064 130.512ZM111.072 132.784H115.232C115.638 132.784 115.936 132.891 116.128 133.104C116.342 133.296 116.448 133.605 116.448 134.032V135.28C116.448 135.707 116.342 136.027 116.128 136.24C115.936 136.453 115.638 136.56 115.232 136.56H111.072V132.784ZM143.591 145.808H127.303C126.791 145.808 126.417 145.691 126.183 145.456C125.948 145.221 125.831 144.848 125.831 144.336V123.6C125.831 123.323 125.863 123.088 125.927 122.896C126.012 122.704 126.129 122.544 126.279 122.416L130.407 118.928C130.513 118.843 130.652 118.779 130.823 118.736C131.015 118.672 131.217 118.64 131.431 118.64H136.391C136.903 118.64 137.276 118.757 137.511 118.992C137.745 119.227 137.863 119.6 137.863 120.112V133.136L137.927 133.072L142.055 129.584C142.161 129.499 142.3 129.435 142.471 129.392C142.663 129.328 142.865 129.296 143.079 129.296H147.719C148.231 129.296 148.604 129.413 148.839 129.648C149.073 129.883 149.191 130.256 149.191 130.768V140.848C149.191 141.125 149.148 141.36 149.063 141.552C148.999 141.744 148.892 141.904 148.743 142.032L144.583 145.488C144.497 145.573 144.359 145.648 144.167 145.712C143.996 145.776 143.804 145.808 143.591 145.808ZM147.719 142C148.124 142 148.412 141.915 148.583 141.744C148.775 141.552 148.871 141.253 148.871 140.848V130.768C148.871 130.363 148.775 130.075 148.583 129.904C148.412 129.712 148.124 129.616 147.719 129.616H143.079C142.673 129.616 142.375 129.712 142.183 129.904C142.012 130.075 141.927 130.363 141.927 130.768V135.952H137.543V120.112C137.543 119.707 137.447 119.419 137.255 119.248C137.084 119.056 136.796 118.96 136.391 118.96H131.431C131.025 118.96 130.727 119.056 130.535 119.248C130.364 119.419 130.279 119.707 130.279 120.112V140.848C130.279 141.253 130.364 141.552 130.535 141.744C130.727 141.915 131.025 142 131.431 142H147.719ZM133.767 139.12V121.84H134.087V138.8H145.223V132.496H145.543V139.12H133.767ZM161.316 146.288C159.247 146.288 157.54 146.064 156.196 145.616C154.873 145.189 153.839 144.613 153.092 143.888C152.345 143.163 151.823 142.331 151.524 141.392C151.247 140.453 151.108 139.483 151.108 138.48V123.6C151.108 123.323 151.14 123.088 151.204 122.896C151.289 122.704 151.407 122.544 151.556 122.416L155.684 118.928C155.791 118.843 155.929 118.779 156.1 118.736C156.292 118.672 156.495 118.64 156.708 118.64H161.732C162.244 118.64 162.617 118.757 162.852 118.992C163.087 119.227 163.204 119.6 163.204 120.112V134.704C163.204 134.896 163.236 135.077 163.3 135.248C163.364 135.397 163.503 135.515 163.716 135.6V123.6C163.716 123.323 163.748 123.088 163.812 122.896C163.876 122.704 163.972 122.555 164.1 122.448L164.132 122.416L168.292 118.928C168.399 118.843 168.537 118.779 168.708 118.736C168.879 118.672 169.081 118.64 169.316 118.64H174.18C174.692 118.64 175.065 118.757 175.3 118.992C175.535 119.227 175.652 119.6 175.652 120.112V135.952C175.652 136.933 175.513 137.84 175.236 138.672C174.959 139.504 174.457 140.219 173.732 140.816L169.572 144.272C168.825 144.912 167.791 145.403 166.468 145.744C165.145 146.107 163.428 146.288 161.316 146.288ZM175.332 135.952V120.112C175.332 119.707 175.236 119.419 175.044 119.248C174.873 119.056 174.585 118.96 174.18 118.96H169.316C168.911 118.96 168.612 119.056 168.42 119.248C168.249 119.419 168.164 119.707 168.164 120.112V134.704C168.164 135.131 168.004 135.493 167.684 135.792C167.364 136.069 166.639 136.208 165.508 136.208C164.399 136.208 163.684 136.069 163.364 135.792C163.044 135.493 162.884 135.131 162.884 134.704V120.112C162.884 119.707 162.788 119.419 162.596 119.248C162.425 119.056 162.137 118.96 161.732 118.96H156.708C156.303 118.96 156.004 119.056 155.812 119.248C155.641 119.419 155.556 119.707 155.556 120.112V135.952C155.556 136.933 155.695 137.829 155.972 138.64C156.271 139.429 156.783 140.112 157.508 140.688C158.255 141.243 159.268 141.68 160.548 142C161.828 142.32 163.46 142.48 165.444 142.48C167.428 142.48 169.06 142.32 170.34 142C171.62 141.68 172.623 141.243 173.348 140.688C174.095 140.112 174.607 139.429 174.884 138.64C175.183 137.829 175.332 136.933 175.332 135.952ZM159.076 121.84H159.396V135.184C159.396 136.379 159.812 137.349 160.644 138.096C161.497 138.821 163.108 139.184 165.476 139.184C167.844 139.184 169.455 138.821 170.308 138.096C171.161 137.349 171.588 136.379 171.588 135.184V121.84H171.908V135.184C171.908 136.464 171.46 137.509 170.564 138.32C169.668 139.109 167.972 139.504 165.476 139.504C162.98 139.504 161.284 139.109 160.388 138.32C159.513 137.509 159.076 136.464 159.076 135.184V121.84ZM194.651 145.808H179.803C179.291 145.808 178.917 145.691 178.683 145.456C178.448 145.221 178.331 144.848 178.331 144.336V123.6C178.331 123.323 178.363 123.088 178.427 122.896C178.512 122.704 178.629 122.544 178.779 122.416L182.907 118.928C183.013 118.843 183.152 118.779 183.323 118.736C183.515 118.672 183.717 118.64 183.931 118.64H198.779C199.291 118.64 199.664 118.757 199.899 118.992C200.133 119.227 200.251 119.6 200.251 120.112V123.856C200.251 124.133 200.208 124.368 200.123 124.56C200.059 124.752 199.952 124.912 199.803 125.04L197.051 127.312C197.264 127.419 197.413 127.579 197.499 127.792C197.605 128.005 197.659 128.283 197.659 128.624V132.048C197.659 132.325 197.616 132.56 197.531 132.752C197.467 132.944 197.36 133.104 197.211 133.232L194.363 135.632H198.779C199.291 135.632 199.664 135.749 199.899 135.984C200.133 136.219 200.251 136.592 200.251 137.104V140.848C200.251 141.125 200.208 141.36 200.123 141.552C200.059 141.744 199.952 141.904 199.803 142.032L195.643 145.488C195.557 145.573 195.419 145.648 195.227 145.712C195.056 145.776 194.864 145.808 194.651 145.808ZM198.779 142C199.184 142 199.472 141.915 199.643 141.744C199.835 141.552 199.931 141.253 199.931 140.848V137.104C199.931 136.699 199.835 136.411 199.643 136.24C199.472 136.048 199.184 135.952 198.779 135.952H189.947V133.2H196.187C196.592 133.2 196.88 133.115 197.051 132.944C197.243 132.752 197.339 132.453 197.339 132.048V128.624C197.339 128.219 197.243 127.931 197.051 127.76C196.88 127.568 196.592 127.472 196.187 127.472H189.947V125.008H198.779C199.184 125.008 199.472 124.923 199.643 124.752C199.835 124.56 199.931 124.261 199.931 123.856V120.112C199.931 119.707 199.835 119.419 199.643 119.248C199.472 119.056 199.184 118.96 198.779 118.96H183.931C183.525 118.96 183.227 119.056 183.035 119.248C182.864 119.419 182.779 119.707 182.779 120.112V140.848C182.779 141.253 182.864 141.552 183.035 141.744C183.227 141.915 183.525 142 183.931 142H198.779ZM197.051 138.8V139.12H186.267V121.84H197.051V122.16H186.587V130.192H194.459V130.512H186.587V138.8H197.051ZM105.042 170.304V171.296H117.522V170.304C117.522 169.728 117.469 169.195 117.362 168.704C117.277 168.213 117.159 167.755 117.01 167.328L114.802 162.112C114.567 161.557 114.322 161.099 114.066 160.736C113.81 160.352 113.383 160.16 112.786 160.16H109.65C109.01 160.16 108.562 160.352 108.306 160.736C108.05 161.099 107.815 161.547 107.602 162.08L105.554 167.328C105.405 167.755 105.277 168.213 105.17 168.704C105.085 169.195 105.042 169.728 105.042 170.304ZM110.162 163.68C110.247 163.488 110.333 163.349 110.418 163.264C110.525 163.179 110.642 163.136 110.77 163.136H111.57C111.698 163.136 111.805 163.179 111.89 163.264C111.997 163.349 112.093 163.488 112.178 163.68L113.682 168.544H108.658L110.162 163.68ZM117.522 177.12V171.616H105.042V177.12H104.722V170.304C104.722 169.707 104.765 169.163 104.85 168.672C104.957 168.16 105.095 167.669 105.266 167.2L107.314 161.952C107.549 161.355 107.815 160.853 108.114 160.448C108.413 160.043 108.925 159.84 109.65 159.84H112.786C113.49 159.84 113.981 160.043 114.258 160.448C114.557 160.853 114.834 161.365 115.09 161.984L117.298 167.2C117.469 167.669 117.597 168.16 117.682 168.672C117.789 169.163 117.842 169.707 117.842 170.304V177.12H117.522ZM108.338 178.848V174.368H114.002V178.848C114.002 179.253 114.098 179.552 114.29 179.744C114.503 179.915 114.823 180 115.25 180H120.082C120.487 180 120.775 179.915 120.946 179.744C121.138 179.552 121.234 179.253 121.234 178.848V170.4C121.234 169.76 121.127 169.024 120.914 168.192C120.722 167.36 120.413 166.389 119.986 165.28L117.202 158.016C117.074 157.653 116.871 157.387 116.594 157.216C116.338 157.045 116.007 156.96 115.602 156.96H106.994C106.567 156.96 106.215 157.045 105.938 157.216C105.682 157.387 105.49 157.653 105.362 158.016L102.578 165.28C102.151 166.389 101.831 167.36 101.618 168.192C101.426 169.024 101.33 169.76 101.33 170.4V178.848C101.33 179.253 101.415 179.552 101.586 179.744C101.778 179.915 102.077 180 102.482 180H107.186C107.591 180 107.879 179.915 108.05 179.744C108.242 179.552 108.338 179.253 108.338 178.848ZM104.05 183.488C103.965 183.573 103.826 183.648 103.634 183.712C103.463 183.776 103.271 183.808 103.058 183.808H98.3539C97.8419 183.808 97.4685 183.691 97.2339 183.456C96.9992 183.221 96.8819 182.848 96.8819 182.336V173.888C96.8819 173.227 96.9779 172.48 97.1699 171.648C97.3832 170.795 97.7139 169.792 98.1619 168.64L100.914 161.408C100.978 161.216 101.053 161.056 101.138 160.928C101.245 160.779 101.351 160.651 101.458 160.544L101.49 160.512L105.586 157.088C105.757 156.939 105.959 156.832 106.194 156.768C106.429 156.683 106.695 156.64 106.994 156.64H115.602C116.093 156.64 116.487 156.747 116.786 156.96C117.106 157.152 117.341 157.461 117.49 157.888L120.274 165.152C120.722 166.304 121.042 167.307 121.234 168.16C121.447 168.992 121.554 169.739 121.554 170.4V178.848C121.554 179.125 121.511 179.36 121.426 179.552C121.362 179.744 121.255 179.904 121.106 180.032L116.946 183.488C116.861 183.573 116.722 183.648 116.53 183.712C116.359 183.776 116.167 183.808 115.954 183.808H111.122C110.589 183.808 110.194 183.68 109.938 183.424C109.682 183.189 109.554 182.827 109.554 182.336V178.176H108.658V178.848C108.658 179.125 108.615 179.36 108.53 179.552C108.466 179.744 108.359 179.904 108.21 180.032L104.05 183.488ZM133.972 184.288C131.903 184.288 130.196 184.064 128.852 183.616C127.53 183.189 126.495 182.613 125.748 181.888C125.002 181.163 124.479 180.331 124.18 179.392C123.903 178.453 123.764 177.483 123.764 176.48V161.6C123.764 161.323 123.796 161.088 123.86 160.896C123.946 160.704 124.063 160.544 124.212 160.416L128.34 156.928C128.447 156.843 128.586 156.779 128.756 156.736C128.948 156.672 129.151 156.64 129.364 156.64H134.388C134.9 156.64 135.274 156.757 135.508 156.992C135.743 157.227 135.86 157.6 135.86 158.112V172.704C135.86 172.896 135.892 173.077 135.956 173.248C136.02 173.397 136.159 173.515 136.372 173.6V161.6C136.372 161.323 136.404 161.088 136.468 160.896C136.532 160.704 136.628 160.555 136.756 160.448L136.788 160.416L140.948 156.928C141.055 156.843 141.194 156.779 141.364 156.736C141.535 156.672 141.738 156.64 141.972 156.64H146.836C147.348 156.64 147.722 156.757 147.956 156.992C148.191 157.227 148.308 157.6 148.308 158.112V173.952C148.308 174.933 148.17 175.84 147.892 176.672C147.615 177.504 147.114 178.219 146.388 178.816L142.228 182.272C141.482 182.912 140.447 183.403 139.124 183.744C137.802 184.107 136.084 184.288 133.972 184.288ZM147.988 173.952V158.112C147.988 157.707 147.892 157.419 147.7 157.248C147.53 157.056 147.242 156.96 146.836 156.96H141.972C141.567 156.96 141.268 157.056 141.076 157.248C140.906 157.419 140.82 157.707 140.82 158.112V172.704C140.82 173.131 140.66 173.493 140.34 173.792C140.02 174.069 139.295 174.208 138.164 174.208C137.055 174.208 136.34 174.069 136.02 173.792C135.7 173.493 135.54 173.131 135.54 172.704V158.112C135.54 157.707 135.444 157.419 135.252 157.248C135.082 157.056 134.794 156.96 134.388 156.96H129.364C128.959 156.96 128.66 157.056 128.468 157.248C128.298 157.419 128.212 157.707 128.212 158.112V173.952C128.212 174.933 128.351 175.829 128.628 176.64C128.927 177.429 129.439 178.112 130.164 178.688C130.911 179.243 131.924 179.68 133.204 180C134.484 180.32 136.116 180.48 138.1 180.48C140.084 180.48 141.716 180.32 142.996 180C144.276 179.68 145.279 179.243 146.004 178.688C146.751 178.112 147.263 177.429 147.54 176.64C147.839 175.829 147.988 174.933 147.988 173.952ZM131.732 159.84H132.052V173.184C132.052 174.379 132.468 175.349 133.3 176.096C134.154 176.821 135.764 177.184 138.132 177.184C140.5 177.184 142.111 176.821 142.964 176.096C143.818 175.349 144.244 174.379 144.244 173.184V159.84H144.564V173.184C144.564 174.464 144.116 175.509 143.22 176.32C142.324 177.109 140.628 177.504 138.132 177.504C135.636 177.504 133.94 177.109 133.044 176.32C132.17 175.509 131.732 174.464 131.732 173.184V159.84ZM166.187 160.16H159.211V169.408H166.187C167.51 169.408 168.395 169.088 168.843 168.448C169.291 167.808 169.515 166.901 169.515 165.728V163.488C169.515 162.507 169.238 161.707 168.683 161.088C168.15 160.469 167.318 160.16 166.187 160.16ZM162.667 162.72H165.067C165.622 162.72 165.995 162.869 166.187 163.168C166.379 163.445 166.475 163.797 166.475 164.224V165.312C166.475 165.739 166.379 166.101 166.187 166.4C165.995 166.677 165.622 166.816 165.067 166.816H162.667V162.72ZM159.211 177.12H158.891V159.84H166.187C167.424 159.84 168.342 160.192 168.939 160.896C169.536 161.579 169.835 162.443 169.835 163.488V165.696C169.835 166.677 169.707 167.488 169.451 168.128C169.195 168.747 168.683 169.173 167.915 169.408H168.267C169.568 169.408 170.539 169.707 171.179 170.304C171.819 170.88 172.139 171.723 172.139 172.832V177.12H171.819V172.832C171.819 171.787 171.531 171.008 170.955 170.496C170.379 169.963 169.483 169.696 168.267 169.696H159.211V177.12ZM161.515 180C161.92 180 162.208 179.915 162.379 179.744C162.571 179.552 162.667 179.253 162.667 178.848V172.576H167.147C167.595 172.576 167.904 172.693 168.075 172.928C168.267 173.141 168.363 173.483 168.363 173.952V178.848C168.363 179.253 168.448 179.552 168.619 179.744C168.811 179.915 169.11 180 169.515 180H174.475C174.88 180 175.168 179.915 175.339 179.744C175.531 179.552 175.627 179.253 175.627 178.848V172.064C175.627 170.72 175.264 169.643 174.539 168.832C173.835 168.021 172.907 167.552 171.755 167.424C172.416 167.147 172.875 166.699 173.131 166.08C173.408 165.44 173.547 164.672 173.547 163.776V162.304C173.547 160.725 173.088 159.445 172.171 158.464C171.275 157.461 169.632 156.96 167.243 156.96H156.587C156.182 156.96 155.883 157.056 155.691 157.248C155.52 157.419 155.435 157.707 155.435 158.112V178.848C155.435 179.253 155.52 179.552 155.691 179.744C155.883 179.915 156.182 180 156.587 180H161.515ZM162.539 180.032L158.379 183.488C158.294 183.573 158.155 183.648 157.963 183.712C157.792 183.776 157.6 183.808 157.387 183.808H152.459C151.947 183.808 151.574 183.691 151.339 183.456C151.104 183.221 150.987 182.848 150.987 182.336V161.6C150.987 161.323 151.019 161.088 151.083 160.896C151.168 160.704 151.286 160.544 151.435 160.416L155.563 156.928C155.67 156.843 155.808 156.779 155.979 156.736C156.171 156.672 156.374 156.64 156.587 156.64H167.243C169.782 156.64 171.52 157.173 172.459 158.24C173.398 159.285 173.867 160.64 173.867 162.304V163.776C173.867 164.565 173.771 165.259 173.579 165.856C173.387 166.432 173.078 166.901 172.651 167.264H172.619C173.622 167.541 174.422 168.096 175.019 168.928C175.638 169.76 175.947 170.805 175.947 172.064V178.848C175.947 179.125 175.904 179.36 175.819 179.552C175.755 179.744 175.648 179.904 175.499 180.032L171.339 183.488C171.254 183.573 171.115 183.648 170.923 183.712C170.752 183.776 170.56 183.808 170.347 183.808H165.387C164.875 183.808 164.502 183.691 164.267 183.456C164.032 183.221 163.915 182.848 163.915 182.336V177.44C163.915 177.099 163.851 176.843 163.723 176.672C163.595 176.48 163.36 176.384 163.019 176.384H162.987V178.848C162.987 179.125 162.944 179.36 162.859 179.552C162.795 179.744 162.688 179.904 162.539 180.032ZM185.636 170.304V171.296H198.116V170.304C198.116 169.728 198.062 169.195 197.956 168.704C197.87 168.213 197.753 167.755 197.604 167.328L195.396 162.112C195.161 161.557 194.916 161.099 194.66 160.736C194.404 160.352 193.977 160.16 193.38 160.16H190.244C189.604 160.16 189.156 160.352 188.9 160.736C188.644 161.099 188.409 161.547 188.196 162.08L186.148 167.328C185.998 167.755 185.87 168.213 185.764 168.704C185.678 169.195 185.636 169.728 185.636 170.304ZM190.756 163.68C190.841 163.488 190.926 163.349 191.012 163.264C191.118 163.179 191.236 163.136 191.364 163.136H192.164C192.292 163.136 192.398 163.179 192.484 163.264C192.59 163.349 192.686 163.488 192.772 163.68L194.276 168.544H189.252L190.756 163.68ZM198.116 177.12V171.616H185.636V177.12H185.316V170.304C185.316 169.707 185.358 169.163 185.444 168.672C185.55 168.16 185.689 167.669 185.86 167.2L187.908 161.952C188.142 161.355 188.409 160.853 188.708 160.448C189.006 160.043 189.518 159.84 190.244 159.84H193.38C194.084 159.84 194.574 160.043 194.852 160.448C195.15 160.853 195.428 161.365 195.684 161.984L197.892 167.2C198.062 167.669 198.19 168.16 198.276 168.672C198.382 169.163 198.436 169.707 198.436 170.304V177.12H198.116ZM188.932 178.848V174.368H194.596V178.848C194.596 179.253 194.692 179.552 194.884 179.744C195.097 179.915 195.417 180 195.844 180H200.676C201.081 180 201.369 179.915 201.54 179.744C201.732 179.552 201.828 179.253 201.828 178.848V170.4C201.828 169.76 201.721 169.024 201.508 168.192C201.316 167.36 201.006 166.389 200.58 165.28L197.796 158.016C197.668 157.653 197.465 157.387 197.188 157.216C196.932 157.045 196.601 156.96 196.196 156.96H187.588C187.161 156.96 186.809 157.045 186.532 157.216C186.276 157.387 186.084 157.653 185.956 158.016L183.172 165.28C182.745 166.389 182.425 167.36 182.212 168.192C182.02 169.024 181.924 169.76 181.924 170.4V178.848C181.924 179.253 182.009 179.552 182.18 179.744C182.372 179.915 182.67 180 183.076 180H187.78C188.185 180 188.473 179.915 188.644 179.744C188.836 179.552 188.932 179.253 188.932 178.848ZM184.644 183.488C184.558 183.573 184.42 183.648 184.228 183.712C184.057 183.776 183.865 183.808 183.652 183.808H178.948C178.436 183.808 178.062 183.691 177.828 183.456C177.593 183.221 177.476 182.848 177.476 182.336V173.888C177.476 173.227 177.572 172.48 177.764 171.648C177.977 170.795 178.308 169.792 178.756 168.64L181.508 161.408C181.572 161.216 181.646 161.056 181.732 160.928C181.838 160.779 181.945 160.651 182.052 160.544L182.084 160.512L186.18 157.088C186.35 156.939 186.553 156.832 186.788 156.768C187.022 156.683 187.289 156.64 187.588 156.64H196.196C196.686 156.64 197.081 156.747 197.38 156.96C197.7 157.152 197.934 157.461 198.084 157.888L200.868 165.152C201.316 166.304 201.636 167.307 201.828 168.16C202.041 168.992 202.148 169.739 202.148 170.4V178.848C202.148 179.125 202.105 179.36 202.02 179.552C201.956 179.744 201.849 179.904 201.7 180.032L197.54 183.488C197.454 183.573 197.316 183.648 197.124 183.712C196.953 183.776 196.761 183.808 196.548 183.808H191.716C191.182 183.808 190.788 183.68 190.532 183.424C190.276 183.189 190.148 182.827 190.148 182.336V178.176H189.252V178.848C189.252 179.125 189.209 179.36 189.124 179.552C189.06 179.744 188.953 179.904 188.804 180.032L184.644 183.488Z" fill="#656B75"/>
<path d="M100.896 145.808C100.384 145.808 100.011 145.691 99.7764 145.456C99.5417 145.221 99.4244 144.848 99.4244 144.336V123.6C99.4244 123.323 99.4564 123.088 99.5204 122.896C99.6057 122.704 99.723 122.544 99.8724 122.416L104 118.928C104.107 118.843 104.246 118.779 104.416 118.736C104.608 118.672 104.811 118.64 105.024 118.64H115.232C117.451 118.64 119.083 119.077 120.128 119.952C121.174 120.805 121.696 122.107 121.696 123.856V125.392C121.696 126.139 121.59 126.779 121.376 127.312C121.184 127.845 120.886 128.272 120.48 128.592L120.384 128.656C121.536 128.912 122.4 129.467 122.976 130.32C123.552 131.152 123.84 132.315 123.84 133.808V136.752C123.84 137.712 123.702 138.544 123.424 139.248C123.147 139.931 122.731 140.507 122.176 140.976L118.048 144.464C117.515 144.912 116.843 145.243 116.032 145.456C115.222 145.691 114.272 145.808 113.184 145.808H100.896ZM117.312 142C119.424 142 120.982 141.573 121.984 140.72C123.008 139.867 123.52 138.544 123.52 136.752V133.808C123.52 132.251 123.19 131.067 122.528 130.256C121.867 129.445 120.854 128.976 119.488 128.848C120.128 128.571 120.598 128.155 120.896 127.6C121.216 127.024 121.376 126.288 121.376 125.392V123.856C121.376 122.192 120.875 120.965 119.872 120.176C118.87 119.365 117.323 118.96 115.232 118.96H105.024C104.619 118.96 104.32 119.056 104.128 119.248C103.958 119.419 103.872 119.707 103.872 120.112V140.848C103.872 141.253 103.958 141.552 104.128 141.744C104.32 141.915 104.619 142 105.024 142H117.312ZM116.032 139.12H107.424V121.84H113.92C114.795 121.84 115.51 121.936 116.064 122.128C116.619 122.299 117.046 122.544 117.344 122.864C117.643 123.163 117.846 123.515 117.952 123.92C118.059 124.325 118.112 124.763 118.112 125.232V127.28C118.112 127.92 117.995 128.507 117.76 129.04C117.547 129.573 116.982 129.957 116.064 130.192C116.939 130.192 117.654 130.288 118.208 130.48C118.763 130.651 119.19 130.907 119.488 131.248C119.787 131.568 119.979 131.952 120.064 132.4C120.171 132.848 120.224 133.339 120.224 133.872V135.92C120.224 136.389 120.171 136.827 120.064 137.232C119.958 137.616 119.755 137.947 119.456 138.224C119.179 138.501 118.763 138.725 118.208 138.896C117.654 139.045 116.928 139.12 116.032 139.12ZM113.92 122.16H107.744V130.192H113.92C114.795 130.192 115.488 130.117 116 129.968C116.512 129.797 116.896 129.584 117.152 129.328C117.43 129.051 117.6 128.741 117.664 128.4C117.75 128.037 117.792 127.664 117.792 127.28V125.232C117.792 124.379 117.547 123.653 117.056 123.056C116.566 122.459 115.52 122.16 113.92 122.16ZM111.072 124.4H113.792C114.198 124.4 114.496 124.507 114.688 124.72C114.902 124.933 115.008 125.253 115.008 125.68V126.576C115.008 127.003 114.902 127.323 114.688 127.536C114.496 127.749 114.198 127.856 113.792 127.856H111.072V124.4ZM116.064 130.512H107.744V138.8H116.032C117.632 138.8 118.678 138.544 119.168 138.032C119.659 137.499 119.904 136.795 119.904 135.92V133.872C119.904 132.912 119.659 132.112 119.168 131.472C118.699 130.832 117.664 130.512 116.064 130.512ZM111.072 132.784H115.232C115.638 132.784 115.936 132.891 116.128 133.104C116.342 133.296 116.448 133.605 116.448 134.032V135.28C116.448 135.707 116.342 136.027 116.128 136.24C115.936 136.453 115.638 136.56 115.232 136.56H111.072V132.784ZM143.591 145.808H127.303C126.791 145.808 126.417 145.691 126.183 145.456C125.948 145.221 125.831 144.848 125.831 144.336V123.6C125.831 123.323 125.863 123.088 125.927 122.896C126.012 122.704 126.129 122.544 126.279 122.416L130.407 118.928C130.513 118.843 130.652 118.779 130.823 118.736C131.015 118.672 131.217 118.64 131.431 118.64H136.391C136.903 118.64 137.276 118.757 137.511 118.992C137.745 119.227 137.863 119.6 137.863 120.112V133.136L137.927 133.072L142.055 129.584C142.161 129.499 142.3 129.435 142.471 129.392C142.663 129.328 142.865 129.296 143.079 129.296H147.719C148.231 129.296 148.604 129.413 148.839 129.648C149.073 129.883 149.191 130.256 149.191 130.768V140.848C149.191 141.125 149.148 141.36 149.063 141.552C148.999 141.744 148.892 141.904 148.743 142.032L144.583 145.488C144.497 145.573 144.359 145.648 144.167 145.712C143.996 145.776 143.804 145.808 143.591 145.808ZM147.719 142C148.124 142 148.412 141.915 148.583 141.744C148.775 141.552 148.871 141.253 148.871 140.848V130.768C148.871 130.363 148.775 130.075 148.583 129.904C148.412 129.712 148.124 129.616 147.719 129.616H143.079C142.673 129.616 142.375 129.712 142.183 129.904C142.012 130.075 141.927 130.363 141.927 130.768V135.952H137.543V120.112C137.543 119.707 137.447 119.419 137.255 119.248C137.084 119.056 136.796 118.96 136.391 118.96H131.431C131.025 118.96 130.727 119.056 130.535 119.248C130.364 119.419 130.279 119.707 130.279 120.112V140.848C130.279 141.253 130.364 141.552 130.535 141.744C130.727 141.915 131.025 142 131.431 142H147.719ZM133.767 139.12V121.84H134.087V138.8H145.223V132.496H145.543V139.12H133.767ZM161.316 146.288C159.247 146.288 157.54 146.064 156.196 145.616C154.873 145.189 153.839 144.613 153.092 143.888C152.345 143.163 151.823 142.331 151.524 141.392C151.247 140.453 151.108 139.483 151.108 138.48V123.6C151.108 123.323 151.14 123.088 151.204 122.896C151.289 122.704 151.407 122.544 151.556 122.416L155.684 118.928C155.791 118.843 155.929 118.779 156.1 118.736C156.292 118.672 156.495 118.64 156.708 118.64H161.732C162.244 118.64 162.617 118.757 162.852 118.992C163.087 119.227 163.204 119.6 163.204 120.112V134.704C163.204 134.896 163.236 135.077 163.3 135.248C163.364 135.397 163.503 135.515 163.716 135.6V123.6C163.716 123.323 163.748 123.088 163.812 122.896C163.876 122.704 163.972 122.555 164.1 122.448L164.132 122.416L168.292 118.928C168.399 118.843 168.537 118.779 168.708 118.736C168.879 118.672 169.081 118.64 169.316 118.64H174.18C174.692 118.64 175.065 118.757 175.3 118.992C175.535 119.227 175.652 119.6 175.652 120.112V135.952C175.652 136.933 175.513 137.84 175.236 138.672C174.959 139.504 174.457 140.219 173.732 140.816L169.572 144.272C168.825 144.912 167.791 145.403 166.468 145.744C165.145 146.107 163.428 146.288 161.316 146.288ZM175.332 135.952V120.112C175.332 119.707 175.236 119.419 175.044 119.248C174.873 119.056 174.585 118.96 174.18 118.96H169.316C168.911 118.96 168.612 119.056 168.42 119.248C168.249 119.419 168.164 119.707 168.164 120.112V134.704C168.164 135.131 168.004 135.493 167.684 135.792C167.364 136.069 166.639 136.208 165.508 136.208C164.399 136.208 163.684 136.069 163.364 135.792C163.044 135.493 162.884 135.131 162.884 134.704V120.112C162.884 119.707 162.788 119.419 162.596 119.248C162.425 119.056 162.137 118.96 161.732 118.96H156.708C156.303 118.96 156.004 119.056 155.812 119.248C155.641 119.419 155.556 119.707 155.556 120.112V135.952C155.556 136.933 155.695 137.829 155.972 138.64C156.271 139.429 156.783 140.112 157.508 140.688C158.255 141.243 159.268 141.68 160.548 142C161.828 142.32 163.46 142.48 165.444 142.48C167.428 142.48 169.06 142.32 170.34 142C171.62 141.68 172.623 141.243 173.348 140.688C174.095 140.112 174.607 139.429 174.884 138.64C175.183 137.829 175.332 136.933 175.332 135.952ZM159.076 121.84H159.396V135.184C159.396 136.379 159.812 137.349 160.644 138.096C161.497 138.821 163.108 139.184 165.476 139.184C167.844 139.184 169.455 138.821 170.308 138.096C171.161 137.349 171.588 136.379 171.588 135.184V121.84H171.908V135.184C171.908 136.464 171.46 137.509 170.564 138.32C169.668 139.109 167.972 139.504 165.476 139.504C162.98 139.504 161.284 139.109 160.388 138.32C159.513 137.509 159.076 136.464 159.076 135.184V121.84ZM194.651 145.808H179.803C179.291 145.808 178.917 145.691 178.683 145.456C178.448 145.221 178.331 144.848 178.331 144.336V123.6C178.331 123.323 178.363 123.088 178.427 122.896C178.512 122.704 178.629 122.544 178.779 122.416L182.907 118.928C183.013 118.843 183.152 118.779 183.323 118.736C183.515 118.672 183.717 118.64 183.931 118.64H198.779C199.291 118.64 199.664 118.757 199.899 118.992C200.133 119.227 200.251 119.6 200.251 120.112V123.856C200.251 124.133 200.208 124.368 200.123 124.56C200.059 124.752 199.952 124.912 199.803 125.04L197.051 127.312C197.264 127.419 197.413 127.579 197.499 127.792C197.605 128.005 197.659 128.283 197.659 128.624V132.048C197.659 132.325 197.616 132.56 197.531 132.752C197.467 132.944 197.36 133.104 197.211 133.232L194.363 135.632H198.779C199.291 135.632 199.664 135.749 199.899 135.984C200.133 136.219 200.251 136.592 200.251 137.104V140.848C200.251 141.125 200.208 141.36 200.123 141.552C200.059 141.744 199.952 141.904 199.803 142.032L195.643 145.488C195.557 145.573 195.419 145.648 195.227 145.712C195.056 145.776 194.864 145.808 194.651 145.808ZM198.779 142C199.184 142 199.472 141.915 199.643 141.744C199.835 141.552 199.931 141.253 199.931 140.848V137.104C199.931 136.699 199.835 136.411 199.643 136.24C199.472 136.048 199.184 135.952 198.779 135.952H189.947V133.2H196.187C196.592 133.2 196.88 133.115 197.051 132.944C197.243 132.752 197.339 132.453 197.339 132.048V128.624C197.339 128.219 197.243 127.931 197.051 127.76C196.88 127.568 196.592 127.472 196.187 127.472H189.947V125.008H198.779C199.184 125.008 199.472 124.923 199.643 124.752C199.835 124.56 199.931 124.261 199.931 123.856V120.112C199.931 119.707 199.835 119.419 199.643 119.248C199.472 119.056 199.184 118.96 198.779 118.96H183.931C183.525 118.96 183.227 119.056 183.035 119.248C182.864 119.419 182.779 119.707 182.779 120.112V140.848C182.779 141.253 182.864 141.552 183.035 141.744C183.227 141.915 183.525 142 183.931 142H198.779ZM197.051 138.8V139.12H186.267V121.84H197.051V122.16H186.587V130.192H194.459V130.512H186.587V138.8H197.051ZM105.042 170.304V171.296H117.522V170.304C117.522 169.728 117.469 169.195 117.362 168.704C117.277 168.213 117.159 167.755 117.01 167.328L114.802 162.112C114.567 161.557 114.322 161.099 114.066 160.736C113.81 160.352 113.383 160.16 112.786 160.16H109.65C109.01 160.16 108.562 160.352 108.306 160.736C108.05 161.099 107.815 161.547 107.602 162.08L105.554 167.328C105.405 167.755 105.277 168.213 105.17 168.704C105.085 169.195 105.042 169.728 105.042 170.304ZM110.162 163.68C110.247 163.488 110.333 163.349 110.418 163.264C110.525 163.179 110.642 163.136 110.77 163.136H111.57C111.698 163.136 111.805 163.179 111.89 163.264C111.997 163.349 112.093 163.488 112.178 163.68L113.682 168.544H108.658L110.162 163.68ZM117.522 177.12V171.616H105.042V177.12H104.722V170.304C104.722 169.707 104.765 169.163 104.85 168.672C104.957 168.16 105.095 167.669 105.266 167.2L107.314 161.952C107.549 161.355 107.815 160.853 108.114 160.448C108.413 160.043 108.925 159.84 109.65 159.84H112.786C113.49 159.84 113.981 160.043 114.258 160.448C114.557 160.853 114.834 161.365 115.09 161.984L117.298 167.2C117.469 167.669 117.597 168.16 117.682 168.672C117.789 169.163 117.842 169.707 117.842 170.304V177.12H117.522ZM108.338 178.848V174.368H114.002V178.848C114.002 179.253 114.098 179.552 114.29 179.744C114.503 179.915 114.823 180 115.25 180H120.082C120.487 180 120.775 179.915 120.946 179.744C121.138 179.552 121.234 179.253 121.234 178.848V170.4C121.234 169.76 121.127 169.024 120.914 168.192C120.722 167.36 120.413 166.389 119.986 165.28L117.202 158.016C117.074 157.653 116.871 157.387 116.594 157.216C116.338 157.045 116.007 156.96 115.602 156.96H106.994C106.567 156.96 106.215 157.045 105.938 157.216C105.682 157.387 105.49 157.653 105.362 158.016L102.578 165.28C102.151 166.389 101.831 167.36 101.618 168.192C101.426 169.024 101.33 169.76 101.33 170.4V178.848C101.33 179.253 101.415 179.552 101.586 179.744C101.778 179.915 102.077 180 102.482 180H107.186C107.591 180 107.879 179.915 108.05 179.744C108.242 179.552 108.338 179.253 108.338 178.848ZM104.05 183.488C103.965 183.573 103.826 183.648 103.634 183.712C103.463 183.776 103.271 183.808 103.058 183.808H98.3539C97.8419 183.808 97.4685 183.691 97.2339 183.456C96.9992 183.221 96.8819 182.848 96.8819 182.336V173.888C96.8819 173.227 96.9779 172.48 97.1699 171.648C97.3832 170.795 97.7139 169.792 98.1619 168.64L100.914 161.408C100.978 161.216 101.053 161.056 101.138 160.928C101.245 160.779 101.351 160.651 101.458 160.544L101.49 160.512L105.586 157.088C105.757 156.939 105.959 156.832 106.194 156.768C106.429 156.683 106.695 156.64 106.994 156.64H115.602C116.093 156.64 116.487 156.747 116.786 156.96C117.106 157.152 117.341 157.461 117.49 157.888L120.274 165.152C120.722 166.304 121.042 167.307 121.234 168.16C121.447 168.992 121.554 169.739 121.554 170.4V178.848C121.554 179.125 121.511 179.36 121.426 179.552C121.362 179.744 121.255 179.904 121.106 180.032L116.946 183.488C116.861 183.573 116.722 183.648 116.53 183.712C116.359 183.776 116.167 183.808 115.954 183.808H111.122C110.589 183.808 110.194 183.68 109.938 183.424C109.682 183.189 109.554 182.827 109.554 182.336V178.176H108.658V178.848C108.658 179.125 108.615 179.36 108.53 179.552C108.466 179.744 108.359 179.904 108.21 180.032L104.05 183.488ZM133.972 184.288C131.903 184.288 130.196 184.064 128.852 183.616C127.53 183.189 126.495 182.613 125.748 181.888C125.002 181.163 124.479 180.331 124.18 179.392C123.903 178.453 123.764 177.483 123.764 176.48V161.6C123.764 161.323 123.796 161.088 123.86 160.896C123.946 160.704 124.063 160.544 124.212 160.416L128.34 156.928C128.447 156.843 128.586 156.779 128.756 156.736C128.948 156.672 129.151 156.64 129.364 156.64H134.388C134.9 156.64 135.274 156.757 135.508 156.992C135.743 157.227 135.86 157.6 135.86 158.112V172.704C135.86 172.896 135.892 173.077 135.956 173.248C136.02 173.397 136.159 173.515 136.372 173.6V161.6C136.372 161.323 136.404 161.088 136.468 160.896C136.532 160.704 136.628 160.555 136.756 160.448L136.788 160.416L140.948 156.928C141.055 156.843 141.194 156.779 141.364 156.736C141.535 156.672 141.738 156.64 141.972 156.64H146.836C147.348 156.64 147.722 156.757 147.956 156.992C148.191 157.227 148.308 157.6 148.308 158.112V173.952C148.308 174.933 148.17 175.84 147.892 176.672C147.615 177.504 147.114 178.219 146.388 178.816L142.228 182.272C141.482 182.912 140.447 183.403 139.124 183.744C137.802 184.107 136.084 184.288 133.972 184.288ZM147.988 173.952V158.112C147.988 157.707 147.892 157.419 147.7 157.248C147.53 157.056 147.242 156.96 146.836 156.96H141.972C141.567 156.96 141.268 157.056 141.076 157.248C140.906 157.419 140.82 157.707 140.82 158.112V172.704C140.82 173.131 140.66 173.493 140.34 173.792C140.02 174.069 139.295 174.208 138.164 174.208C137.055 174.208 136.34 174.069 136.02 173.792C135.7 173.493 135.54 173.131 135.54 172.704V158.112C135.54 157.707 135.444 157.419 135.252 157.248C135.082 157.056 134.794 156.96 134.388 156.96H129.364C128.959 156.96 128.66 157.056 128.468 157.248C128.298 157.419 128.212 157.707 128.212 158.112V173.952C128.212 174.933 128.351 175.829 128.628 176.64C128.927 177.429 129.439 178.112 130.164 178.688C130.911 179.243 131.924 179.68 133.204 180C134.484 180.32 136.116 180.48 138.1 180.48C140.084 180.48 141.716 180.32 142.996 180C144.276 179.68 145.279 179.243 146.004 178.688C146.751 178.112 147.263 177.429 147.54 176.64C147.839 175.829 147.988 174.933 147.988 173.952ZM131.732 159.84H132.052V173.184C132.052 174.379 132.468 175.349 133.3 176.096C134.154 176.821 135.764 177.184 138.132 177.184C140.5 177.184 142.111 176.821 142.964 176.096C143.818 175.349 144.244 174.379 144.244 173.184V159.84H144.564V173.184C144.564 174.464 144.116 175.509 143.22 176.32C142.324 177.109 140.628 177.504 138.132 177.504C135.636 177.504 133.94 177.109 133.044 176.32C132.17 175.509 131.732 174.464 131.732 173.184V159.84ZM166.187 160.16H159.211V169.408H166.187C167.51 169.408 168.395 169.088 168.843 168.448C169.291 167.808 169.515 166.901 169.515 165.728V163.488C169.515 162.507 169.238 161.707 168.683 161.088C168.15 160.469 167.318 160.16 166.187 160.16ZM162.667 162.72H165.067C165.622 162.72 165.995 162.869 166.187 163.168C166.379 163.445 166.475 163.797 166.475 164.224V165.312C166.475 165.739 166.379 166.101 166.187 166.4C165.995 166.677 165.622 166.816 165.067 166.816H162.667V162.72ZM159.211 177.12H158.891V159.84H166.187C167.424 159.84 168.342 160.192 168.939 160.896C169.536 161.579 169.835 162.443 169.835 163.488V165.696C169.835 166.677 169.707 167.488 169.451 168.128C169.195 168.747 168.683 169.173 167.915 169.408H168.267C169.568 169.408 170.539 169.707 171.179 170.304C171.819 170.88 172.139 171.723 172.139 172.832V177.12H171.819V172.832C171.819 171.787 171.531 171.008 170.955 170.496C170.379 169.963 169.483 169.696 168.267 169.696H159.211V177.12ZM161.515 180C161.92 180 162.208 179.915 162.379 179.744C162.571 179.552 162.667 179.253 162.667 178.848V172.576H167.147C167.595 172.576 167.904 172.693 168.075 172.928C168.267 173.141 168.363 173.483 168.363 173.952V178.848C168.363 179.253 168.448 179.552 168.619 179.744C168.811 179.915 169.11 180 169.515 180H174.475C174.88 180 175.168 179.915 175.339 179.744C175.531 179.552 175.627 179.253 175.627 178.848V172.064C175.627 170.72 175.264 169.643 174.539 168.832C173.835 168.021 172.907 167.552 171.755 167.424C172.416 167.147 172.875 166.699 173.131 166.08C173.408 165.44 173.547 164.672 173.547 163.776V162.304C173.547 160.725 173.088 159.445 172.171 158.464C171.275 157.461 169.632 156.96 167.243 156.96H156.587C156.182 156.96 155.883 157.056 155.691 157.248C155.52 157.419 155.435 157.707 155.435 158.112V178.848C155.435 179.253 155.52 179.552 155.691 179.744C155.883 179.915 156.182 180 156.587 180H161.515ZM162.539 180.032L158.379 183.488C158.294 183.573 158.155 183.648 157.963 183.712C157.792 183.776 157.6 183.808 157.387 183.808H152.459C151.947 183.808 151.574 183.691 151.339 183.456C151.104 183.221 150.987 182.848 150.987 182.336V161.6C150.987 161.323 151.019 161.088 151.083 160.896C151.168 160.704 151.286 160.544 151.435 160.416L155.563 156.928C155.67 156.843 155.808 156.779 155.979 156.736C156.171 156.672 156.374 156.64 156.587 156.64H167.243C169.782 156.64 171.52 157.173 172.459 158.24C173.398 159.285 173.867 160.64 173.867 162.304V163.776C173.867 164.565 173.771 165.259 173.579 165.856C173.387 166.432 173.078 166.901 172.651 167.264H172.619C173.622 167.541 174.422 168.096 175.019 168.928C175.638 169.76 175.947 170.805 175.947 172.064V178.848C175.947 179.125 175.904 179.36 175.819 179.552C175.755 179.744 175.648 179.904 175.499 180.032L171.339 183.488C171.254 183.573 171.115 183.648 170.923 183.712C170.752 183.776 170.56 183.808 170.347 183.808H165.387C164.875 183.808 164.502 183.691 164.267 183.456C164.032 183.221 163.915 182.848 163.915 182.336V177.44C163.915 177.099 163.851 176.843 163.723 176.672C163.595 176.48 163.36 176.384 163.019 176.384H162.987V178.848C162.987 179.125 162.944 179.36 162.859 179.552C162.795 179.744 162.688 179.904 162.539 180.032ZM185.636 170.304V171.296H198.116V170.304C198.116 169.728 198.062 169.195 197.956 168.704C197.87 168.213 197.753 167.755 197.604 167.328L195.396 162.112C195.161 161.557 194.916 161.099 194.66 160.736C194.404 160.352 193.977 160.16 193.38 160.16H190.244C189.604 160.16 189.156 160.352 188.9 160.736C188.644 161.099 188.409 161.547 188.196 162.08L186.148 167.328C185.998 167.755 185.87 168.213 185.764 168.704C185.678 169.195 185.636 169.728 185.636 170.304ZM190.756 163.68C190.841 163.488 190.926 163.349 191.012 163.264C191.118 163.179 191.236 163.136 191.364 163.136H192.164C192.292 163.136 192.398 163.179 192.484 163.264C192.59 163.349 192.686 163.488 192.772 163.68L194.276 168.544H189.252L190.756 163.68ZM198.116 177.12V171.616H185.636V177.12H185.316V170.304C185.316 169.707 185.358 169.163 185.444 168.672C185.55 168.16 185.689 167.669 185.86 167.2L187.908 161.952C188.142 161.355 188.409 160.853 188.708 160.448C189.006 160.043 189.518 159.84 190.244 159.84H193.38C194.084 159.84 194.574 160.043 194.852 160.448C195.15 160.853 195.428 161.365 195.684 161.984L197.892 167.2C198.062 167.669 198.19 168.16 198.276 168.672C198.382 169.163 198.436 169.707 198.436 170.304V177.12H198.116ZM188.932 178.848V174.368H194.596V178.848C194.596 179.253 194.692 179.552 194.884 179.744C195.097 179.915 195.417 180 195.844 180H200.676C201.081 180 201.369 179.915 201.54 179.744C201.732 179.552 201.828 179.253 201.828 178.848V170.4C201.828 169.76 201.721 169.024 201.508 168.192C201.316 167.36 201.006 166.389 200.58 165.28L197.796 158.016C197.668 157.653 197.465 157.387 197.188 157.216C196.932 157.045 196.601 156.96 196.196 156.96H187.588C187.161 156.96 186.809 157.045 186.532 157.216C186.276 157.387 186.084 157.653 185.956 158.016L183.172 165.28C182.745 166.389 182.425 167.36 182.212 168.192C182.02 169.024 181.924 169.76 181.924 170.4V178.848C181.924 179.253 182.009 179.552 182.18 179.744C182.372 179.915 182.67 180 183.076 180H187.78C188.185 180 188.473 179.915 188.644 179.744C188.836 179.552 188.932 179.253 188.932 178.848ZM184.644 183.488C184.558 183.573 184.42 183.648 184.228 183.712C184.057 183.776 183.865 183.808 183.652 183.808H178.948C178.436 183.808 178.062 183.691 177.828 183.456C177.593 183.221 177.476 182.848 177.476 182.336V173.888C177.476 173.227 177.572 172.48 177.764 171.648C177.977 170.795 178.308 169.792 178.756 168.64L181.508 161.408C181.572 161.216 181.646 161.056 181.732 160.928C181.838 160.779 181.945 160.651 182.052 160.544L182.084 160.512L186.18 157.088C186.35 156.939 186.553 156.832 186.788 156.768C187.022 156.683 187.289 156.64 187.588 156.64H196.196C196.686 156.64 197.081 156.747 197.38 156.96C197.7 157.152 197.934 157.461 198.084 157.888L200.868 165.152C201.316 166.304 201.636 167.307 201.828 168.16C202.041 168.992 202.148 169.739 202.148 170.4V178.848C202.148 179.125 202.105 179.36 202.02 179.552C201.956 179.744 201.849 179.904 201.7 180.032L197.54 183.488C197.454 183.573 197.316 183.648 197.124 183.712C196.953 183.776 196.761 183.808 196.548 183.808H191.716C191.182 183.808 190.788 183.68 190.532 183.424C190.276 183.189 190.148 182.827 190.148 182.336V178.176H189.252V178.848C189.252 179.125 189.209 179.36 189.124 179.552C189.06 179.744 188.953 179.904 188.804 180.032L184.644 183.488Z" fill="#656B75"/>
</g>
<defs>
<clipPath id="clip0_234:9530">
<rect width="411" height="823" fill="white" transform="translate(-56 -258)"/>
</clipPath>
</defs>
</svg>
