<svg width="20" height="21" viewBox="0 0 20 21" fill="none" xmlns="http://www.w3.org/2000/svg">
<rect width="20" height="21" fill="#F2F2F2"/>
<g clip-path="url(#clip0_234:9530)">
<rect width="411" height="823" transform="translate(-28 -393)" fill="white"/>
<path d="M-28 -15C-28 -28.2548 -17.2548 -39 -4 -39H359C372.255 -39 383 -28.2548 383 -15V430H-28V-15Z" fill="#E2DCFE"/>
<g filter="url(#filter0_d_234:9530)">
<rect x="2" y="-5" width="351" height="71" rx="35.5" fill="white"/>
</g>
<rect width="231" height="807" transform="translate(-28 -393)" fill="white"/>
<path d="M10.0925 6.0619C11.1615 6.0619 12.1868 6.48658 12.9427 7.24251C13.6986 7.99844 14.1233 9.0237 14.1233 10.0927C14.1233 11.1618 13.6986 12.1871 12.9427 12.943C12.1868 13.6989 11.1615 14.1236 10.0925 14.1236C9.0234 14.1236 7.99814 13.6989 7.24221 12.943C6.48628 12.1871 6.0616 11.1618 6.0616 10.0927C6.0616 9.0237 6.48628 7.99844 7.24221 7.24251C7.99814 6.48658 9.0234 6.0619 10.0925 6.0619ZM10.0925 8.07732C9.55793 8.07732 9.0453 8.28966 8.66733 8.66763C8.28937 9.04559 8.07703 9.55822 8.07703 10.0927C8.07703 10.6273 8.28937 11.1399 8.66733 11.5179C9.0453 11.8958 9.55793 12.1082 10.0925 12.1082C10.627 12.1082 11.1396 11.8958 11.5176 11.5179C11.8955 11.1399 12.1079 10.6273 12.1079 10.0927C12.1079 9.55822 11.8955 9.04559 11.5176 8.66763C11.1396 8.28966 10.627 8.07732 10.0925 8.07732ZM8.07703 20.1699C7.8251 20.1699 7.61348 19.9885 7.57317 19.7466L7.20032 17.0762C6.56546 16.8243 6.02129 16.4816 5.49728 16.0786L2.98808 17.0963C2.76638 17.177 2.4943 17.0963 2.37338 16.8746L0.357952 13.388C0.22695 13.1663 0.287412 12.8942 0.478878 12.743L2.60515 11.0702L2.53461 10.0927L2.60515 9.08503L0.478878 7.44246C0.287412 7.29131 0.22695 7.01922 0.357952 6.79753L2.37338 3.31084C2.4943 3.08915 2.76638 2.99845 2.98808 3.08915L5.49728 4.09686C6.02129 3.70385 6.56546 3.36123 7.20032 3.1093L7.57317 0.438864C7.61348 0.197013 7.8251 0.015625 8.07703 0.015625H12.1079C12.3598 0.015625 12.5714 0.197013 12.6117 0.438864L12.9846 3.1093C13.6194 3.36123 14.1636 3.70385 14.6876 4.09686L17.1968 3.08915C17.4185 2.99845 17.6906 3.08915 17.8115 3.31084L19.8269 6.79753C19.958 7.01922 19.8975 7.29131 19.706 7.44246L17.5798 9.08503L17.6503 10.0927L17.5798 11.1005L19.706 12.743C19.8975 12.8942 19.958 13.1663 19.8269 13.388L17.8115 16.8746C17.6906 17.0963 17.4185 17.187 17.1968 17.0963L14.6876 16.0886C14.1636 16.4816 13.6194 16.8243 12.9846 17.0762L12.6117 19.7466C12.5714 19.9885 12.3598 20.1699 12.1079 20.1699H8.07703ZM9.33667 2.03105L8.96381 4.66118C7.75456 4.91311 6.68638 5.55804 5.91045 6.45491L3.48186 5.40688L2.72608 6.71691L4.85235 8.27886C4.44926 9.45789 4.44926 10.7377 4.85235 11.9066L2.716 13.4787L3.47178 14.7887L5.92052 13.7407C6.69646 14.6275 7.75456 15.2724 8.95374 15.5142L9.32659 18.1544H10.8583L11.2312 15.5243C12.4303 15.2724 13.4884 14.6275 14.2644 13.7407L16.7131 14.7887L17.4689 13.4787L15.3326 11.9167C15.7356 10.7377 15.7356 9.45789 15.3326 8.27886L17.4588 6.71691L16.703 5.40688L14.2745 6.45491C13.4985 5.55804 12.4303 4.91311 11.2211 4.67126L10.8482 2.03105H9.33667Z" fill="#37474F"/>
</g>
<defs>
<filter id="filter0_d_234:9530" x="-2" y="-5" width="359" height="79" filterUnits="userSpaceOnUse" color-interpolation-filters="sRGB">
<feFlood flood-opacity="0" result="BackgroundImageFix"/>
<feColorMatrix in="SourceAlpha" type="matrix" values="0 0 0 0 0 0 0 0 0 0 0 0 0 0 0 0 0 0 127 0" result="hardAlpha"/>
<feOffset dy="4"/>
<feGaussianBlur stdDeviation="2"/>
<feComposite in2="hardAlpha" operator="out"/>
<feColorMatrix type="matrix" values="0 0 0 0 0.709804 0 0 0 0 0.643137 0 0 0 0 0.898039 0 0 0 0.25 0"/>
<feBlend mode="normal" in2="BackgroundImageFix" result="effect1_dropShadow_234:9530"/>
<feBlend mode="normal" in="SourceGraphic" in2="effect1_dropShadow_234:9530" result="shape"/>
</filter>
<clipPath id="clip0_234:9530">
<rect width="411" height="823" fill="white" transform="translate(-28 -393)"/>
</clipPath>
</defs>
</svg>
