<svg width="19" height="19" viewBox="0 0 19 19" fill="none" xmlns="http://www.w3.org/2000/svg">
<rect width="19" height="19" fill="#F2F2F2"/>
<g clip-path="url(#clip0_234:9530)">
<rect width="411" height="823" transform="translate(-29 -562)" fill="white"/>
<path d="M-29 -184C-29 -197.255 -18.2548 -208 -5 -208H358C371.255 -208 382 -197.255 382 -184V261H-29V-184Z" fill="#E2DCFE"/>
<g filter="url(#filter0_d_234:9530)">
<rect x="1" y="-2" width="351" height="71" rx="35.5" fill="white"/>
</g>
<rect width="231" height="807" transform="translate(-29 -562)" fill="white"/>
<path d="M11.1885 12.7105L13.7985 10.1006H4.05392V8.08513H13.7985L11.1885 5.47516L12.6195 4.05429L17.658 9.09285L12.6195 14.1314L11.1885 12.7105ZM16.1465 0.0234375C16.681 0.0234375 17.1936 0.235776 17.5716 0.613741C17.9495 0.991707 18.1619 1.50434 18.1619 2.03886V6.74488L16.1465 4.72945V2.03886H2.0385V16.1468H16.1465V13.4562L18.1619 11.4408V16.1468C18.1619 16.6814 17.9495 17.194 17.5716 17.5719C17.1936 17.9499 16.681 18.1623 16.1465 18.1623H2.0385C0.919935 18.1623 0.0230713 17.2553 0.0230713 16.1468V2.03886C0.0230713 0.920301 0.919935 0.0234375 2.0385 0.0234375H16.1465Z" fill="#37474F"/>
</g>
<defs>
<filter id="filter0_d_234:9530" x="-3" y="-2" width="359" height="79" filterUnits="userSpaceOnUse" color-interpolation-filters="sRGB">
<feFlood flood-opacity="0" result="BackgroundImageFix"/>
<feColorMatrix in="SourceAlpha" type="matrix" values="0 0 0 0 0 0 0 0 0 0 0 0 0 0 0 0 0 0 127 0" result="hardAlpha"/>
<feOffset dy="4"/>
<feGaussianBlur stdDeviation="2"/>
<feComposite in2="hardAlpha" operator="out"/>
<feColorMatrix type="matrix" values="0 0 0 0 0.709804 0 0 0 0 0.643137 0 0 0 0 0.898039 0 0 0 0.25 0"/>
<feBlend mode="normal" in2="BackgroundImageFix" result="effect1_dropShadow_234:9530"/>
<feBlend mode="normal" in="SourceGraphic" in2="effect1_dropShadow_234:9530" result="shape"/>
</filter>
<clipPath id="clip0_234:9530">
<rect width="411" height="823" fill="white" transform="translate(-29 -562)"/>
</clipPath>
</defs>
</svg>
