<svg width="18" height="20" viewBox="0 0 18 20" fill="none" xmlns="http://www.w3.org/2000/svg">
<rect width="18" height="20" fill="#F2F2F2"/>
<g clip-path="url(#clip0_234:9530)">
<rect width="411" height="823" transform="translate(-27 -280)" fill="white"/>
<rect width="231" height="807" transform="translate(-27 -280)" fill="white"/>
<path d="M16 2C16.5304 2 17.0391 2.21071 17.4142 2.58579C17.7893 2.96086 18 3.46957 18 4V18C18 18.5304 17.7893 19.0391 17.4142 19.4142C17.0391 19.7893 16.5304 20 16 20H2C1.46957 20 0.960859 19.7893 0.585786 19.4142C0.210714 19.0391 0 18.5304 0 18V4C0 3.46957 0.210714 2.96086 0.585786 2.58579C0.960859 2.21071 1.46957 2 2 2H6.18C6.6 0.84 7.7 0 9 0C10.3 0 11.4 0.84 11.82 2H16ZM9 2C8.73478 2 8.48043 2.10536 8.29289 2.29289C8.10536 2.48043 8 2.73478 8 3C8 3.26522 8.10536 3.51957 8.29289 3.70711C8.48043 3.89464 8.73478 4 9 4C9.26522 4 9.51957 3.89464 9.70711 3.70711C9.89464 3.51957 10 3.26522 10 3C10 2.73478 9.89464 2.48043 9.70711 2.29289C9.51957 2.10536 9.26522 2 9 2ZM4 6V4H2V18H16V4H14V6H4ZM9 8C9.53043 8 10.0391 8.21071 10.4142 8.58579C10.7893 8.96086 11 9.46957 11 10C11 10.5304 10.7893 11.0391 10.4142 11.4142C10.0391 11.7893 9.53043 12 9 12C8.46957 12 7.96086 11.7893 7.58579 11.4142C7.21071 11.0391 7 10.5304 7 10C7 9.46957 7.21071 8.96086 7.58579 8.58579C7.96086 8.21071 8.46957 8 9 8ZM5 16V15C5 13.9 6.79 13 9 13C11.21 13 13 13.9 13 15V16H5Z" fill="#37474F"/>
</g>
<defs>
<clipPath id="clip0_234:9530">
<rect width="411" height="823" fill="white" transform="translate(-27 -280)"/>
</clipPath>
</defs>
</svg>
